  0
SECTION
  2
HEADER
  9
$ACADVER
  1
AC1024
  9
$ACADMAINTVER
 70
     6
  9
$DWGCODEPAGE
  3
ANSI_1252
  9
$INSBASE
 10
0.0
 20
0.0
 30
0.0
  9
$EXTMIN
 10
1.000000000000000E+20
 20
1.000000000000000E+20
 30
1.000000000000000E+20
  9
$EXTMAX
 10
-1.000000000000000E+20
 20
-1.000000000000000E+20
 30
-1.000000000000000E+20
  9
$LIMMIN
 10
0.0
 20
0.0
  9
$LIMMAX
 10
12.0
 20
9.0
  9
$ORTHOMODE
 70
     0
  9
$REGENMODE
 70
     1
  9
$FILLMODE
 70
     1
  9
$QTEXTMODE
 70
     0
  9
$MIRRTEXT
 70
     1
  9
$LTSCALE
 40
1.0
  9
$ATTMODE
 70
     1
  9
$TEXTSIZE
 40
0.2
  9
$TRACEWID
 40
0.05
  9
$TEXTSTYLE
  7
Standard
  9
$CLAYER
  8
0
  9
$CELTYPE
  6
ByLayer
  9
$CECOLOR
 62
   256
  9
$CELTSCALE
 40
1.0
  9
$DISPSILH
 70
     0
  9
$DIMSCALE
 40
1.0
  9
$DIMASZ
 40
0.18
  9
$DIMEXO
 40
0.0625
  9
$DIMDLI
 40
0.38
  9
$DIMRND
 40
0.0
  9
$DIMDLE
 40
0.0
  9
$DIMEXE
 40
0.18
  9
$DIMTP
 40
0.0
  9
$DIMTM
 40
0.0
  9
$DIMTXT
 40
0.18
  9
$DIMCEN
 40
0.09
  9
$DIMTSZ
 40
0.0
  9
$DIMTOL
 70
     0
  9
$DIMLIM
 70
     0
  9
$DIMTIH
 70
     1
  9
$DIMTOH
 70
     1
  9
$DIMSE1
 70
     0
  9
$DIMSE2
 70
     0
  9
$DIMTAD
 70
     0
  9
$DIMZIN
 70
     0
  9
$DIMBLK
  1

  9
$DIMASO
 70
     1
  9
$DIMSHO
 70
     1
  9
$DIMPOST
  1

  9
$DIMAPOST
  1

  9
$DIMALT
 70
     0
  9
$DIMALTD
 70
     2
  9
$DIMALTF
 40
25.4
  9
$DIMLFAC
 40
1.0
  9
$DIMTOFL
 70
     0
  9
$DIMTVP
 40
0.0
  9
$DIMTIX
 70
     0
  9
$DIMSOXD
 70
     0
  9
$DIMSAH
 70
     0
  9
$DIMBLK1
  1

  9
$DIMBLK2
  1

  9
$DIMSTYLE
  2
Standard
  9
$DIMCLRD
 70
     0
  9
$DIMCLRE
 70
     0
  9
$DIMCLRT
 70
     0
  9
$DIMTFAC
 40
1.0
  9
$DIMGAP
 40
0.09
  9
$DIMJUST
 70
     0
  9
$DIMSD1
 70
     0
  9
$DIMSD2
 70
     0
  9
$DIMTOLJ
 70
     1
  9
$DIMTZIN
 70
     0
  9
$DIMALTZ
 70
     0
  9
$DIMALTTZ
 70
     0
  9
$DIMUPT
 70
     0
  9
$DIMDEC
 70
     4
  9
$DIMTDEC
 70
     4
  9
$DIMALTU
 70
     2
  9
$DIMALTTD
 70
     2
  9
$DIMTXSTY
  7
Standard
  9
$DIMAUNIT
 70
     0
  9
$DIMADEC
 70
     0
  9
$DIMALTRND
 40
0.0
  9
$DIMAZIN
 70
     0
  9
$DIMDSEP
 70
    46
  9
$DIMATFIT
 70
     3
  9
$DIMFRAC
 70
     0
  9
$DIMLDRBLK
  1

  9
$DIMLUNIT
 70
     2
  9
$DIMLWD
 70
    -2
  9
$DIMLWE
 70
    -2
  9
$DIMTMOVE
 70
     0
  9
$DIMFXL
 40
1.0
  9
$DIMFXLON
 70
     0
  9
$DIMJOGANG
 40
0.7853981633974483
  9
$DIMTFILL
 70
     0
  9
$DIMTFILLCLR
 70
     0
  9
$DIMARCSYM
 70
     0
  9
$DIMLTYPE
  6

  9
$DIMLTEX1
  6

  9
$DIMLTEX2
  6

  9
$DIMTXTDIRECTION
 70
     0
  9
$LUNITS
 70
     2
  9
$LUPREC
 70
     4
  9
$SKETCHINC
 40
0.1
  9
$FILLETRAD
 40
0.5
  9
$AUNITS
 70
     0
  9
$AUPREC
 70
     0
  9
$MENU
  1
.
  9
$ELEVATION
 40
0.0
  9
$PELEVATION
 40
0.0
  9
$THICKNESS
 40
0.0
  9
$LIMCHECK
 70
     0
  9
$CHAMFERA
 40
0.5
  9
$CHAMFERB
 40
0.5
  9
$CHAMFERC
 40
1.0
  9
$CHAMFERD
 40
0.0
  9
$SKPOLY
 70
     0
  9
$TDCREATE
 40
2460214.666052975
  9
$TDUCREATE
 40
2460214.832719641
  9
$TDUPDATE
 40
2460214.666053252
  9
$TDUUPDATE
 40
2460214.832719919
  9
$TDINDWG
 40
0.0000000116
  9
$TDUSRTIMER
 40
0.0000000116
  9
$USRTIMER
 70
     1
  9
$ANGBASE
 50
0.0
  9
$ANGDIR
 70
     0
  9
$PDMODE
 70
     0
  9
$PDSIZE
 40
0.0
  9
$PLINEWID
 40
0.0
  9
$SPLFRAME
 70
     0
  9
$SPLINETYPE
 70
     6
  9
$SPLINESEGS
 70
     8
  9
$HANDSEED
  5
AF
  9
$SURFTAB1
 70
     6
  9
$SURFTAB2
 70
     6
  9
$SURFTYPE
 70
     6
  9
$SURFU
 70
     6
  9
$SURFV
 70
     6
  9
$UCSBASE
  2

  9
$UCSNAME
  2

  9
$UCSORG
 10
0.0
 20
0.0
 30
0.0
  9
$UCSXDIR
 10
1.0
 20
0.0
 30
0.0
  9
$UCSYDIR
 10
0.0
 20
1.0
 30
0.0
  9
$UCSORTHOREF
  2

  9
$UCSORTHOVIEW
 70
     0
  9
$UCSORGTOP
 10
0.0
 20
0.0
 30
0.0
  9
$UCSORGBOTTOM
 10
0.0
 20
0.0
 30
0.0
  9
$UCSORGLEFT
 10
0.0
 20
0.0
 30
0.0
  9
$UCSORGRIGHT
 10
0.0
 20
0.0
 30
0.0
  9
$UCSORGFRONT
 10
0.0
 20
0.0
 30
0.0
  9
$UCSORGBACK
 10
0.0
 20
0.0
 30
0.0
  9
$PUCSBASE
  2

  9
$PUCSNAME
  2

  9
$PUCSORG
 10
0.0
 20
0.0
 30
0.0
  9
$PUCSXDIR
 10
1.0
 20
0.0
 30
0.0
  9
$PUCSYDIR
 10
0.0
 20
1.0
 30
0.0
  9
$PUCSORTHOREF
  2

  9
$PUCSORTHOVIEW
 70
     0
  9
$PUCSORGTOP
 10
0.0
 20
0.0
 30
0.0
  9
$PUCSORGBOTTOM
 10
0.0
 20
0.0
 30
0.0
  9
$PUCSORGLEFT
 10
0.0
 20
0.0
 30
0.0
  9
$PUCSORGRIGHT
 10
0.0
 20
0.0
 30
0.0
  9
$PUCSORGFRONT
 10
0.0
 20
0.0
 30
0.0
  9
$PUCSORGBACK
 10
0.0
 20
0.0
 30
0.0
  9
$USERI1
 70
     0
  9
$USERI2
 70
     0
  9
$USERI3
 70
     0
  9
$USERI4
 70
     0
  9
$USERI5
 70
     0
  9
$USERR1
 40
0.0
  9
$USERR2
 40
0.0
  9
$USERR3
 40
0.0
  9
$USERR4
 40
0.0
  9
$USERR5
 40
0.0
  9
$WORLDVIEW
 70
     1
  9
$SHADEDGE
 70
     3
  9
$SHADEDIF
 70
    70
  9
$TILEMODE
 70
     1
  9
$MAXACTVP
 70
    64
  9
$PINSBASE
 10
0.0
 20
0.0
 30
0.0
  9
$PLIMCHECK
 70
     0
  9
$PEXTMIN
 10
1.000000000000000E+20
 20
1.000000000000000E+20
 30
1.000000000000000E+20
  9
$PEXTMAX
 10
-1.000000000000000E+20
 20
-1.000000000000000E+20
 30
-1.000000000000000E+20
  9
$PLIMMIN
 10
0.0
 20
0.0
  9
$PLIMMAX
 10
12.0
 20
9.0
  9
$UNITMODE
 70
     0
  9
$VISRETAIN
 70
     1
  9
$PLINEGEN
 70
     0
  9
$PSLTSCALE
 70
     1
  9
$TREEDEPTH
 70
  3020
  9
$CMLSTYLE
  2
Standard
  9
$CMLJUST
 70
     0
  9
$CMLSCALE
 40
1.0
  9
$PROXYGRAPHICS
 70
     1
  9
$MEASUREMENT
 70
     0
  9
$CELWEIGHT
370
    -1
  9
$ENDCAPS
280
     0
  9
$JOINSTYLE
280
     0
  9
$LWDISPLAY
290
     1
  9
$INSUNITS
 70
     1
  9
$HYPERLINKBASE
  1

  9
$STYLESHEET
  1

  9
$XEDIT
290
     1
  9
$CEPSNTYPE
380
     0
  9
$PSTYLEMODE
290
     1
  9
$FINGERPRINTGUID
  2
{D4AB3A65-2833-48CD-BD1F-7F007508F990}
  9
$VERSIONGUID
  2
{FAEB1C32-E019-11D5-929B-00C0DF256EC4}
  9
$EXTNAMES
290
     1
  9
$PSVPSCALE
 40
0.0
  9
$OLESTARTUP
290
     0
  9
$SORTENTS
280
   127
  9
$INDEXCTL
280
     0
  9
$HIDETEXT
280
     1
  9
$XCLIPFRAME
280
     2
  9
$HALOGAP
280
     0
  9
$OBSCOLOR
 70
   257
  9
$OBSLTYPE
280
     0
  9
$INTERSECTIONDISPLAY
280
     0
  9
$INTERSECTIONCOLOR
 70
   257
  9
$DIMASSOC
280
     2
  9
$PROJECTNAME
  1

  9
$CAMERADISPLAY
290
     0
  9
$LENSLENGTH
 40
50.0
  9
$CAMERAHEIGHT
 40
0.0
  9
$STEPSPERSEC
 40
2.0
  9
$STEPSIZE
 40
6.0
  9
$3DDWFPREC
 40
2.0
  9
$PSOLWIDTH
 40
0.25
  9
$PSOLHEIGHT
 40
4.0
  9
$LOFTANG1
 40
1.570796326794897
  9
$LOFTANG2
 40
1.570796326794897
  9
$LOFTMAG1
 40
0.0
  9
$LOFTMAG2
 40
0.0
  9
$LOFTPARAM
 70
     7
  9
$LOFTNORMALS
280
     1
  9
$LATITUDE
 40
37.795
  9
$LONGITUDE
 40
-122.394
  9
$NORTHDIRECTION
 40
0.0
  9
$TIMEZONE
 70
 -8000
  9
$LIGHTGLYPHDISPLAY
280
     1
  9
$TILEMODELIGHTSYNCH
280
     1
  9
$CMATERIAL
347
3C
  9
$SOLIDHIST
280
     1
  9
$SHOWHIST
280
     1
  9
$DWFFRAME
280
     2
  9
$DGNFRAME
280
     2
  9
$REALWORLDSCALE
290
     1
  9
$INTERFERECOLOR
 62
   256
  9
$CSHADOW
280
     0
  9
$SHADOWPLANELOCATION
 40
0.0
  0
ENDSEC
  0
SECTION
  2
CLASSES
  0
CLASS
  1
ACDBDICTIONARYWDFLT
  2
AcDbDictionaryWithDefault
  3
ObjectDBX Classes
 90
        0
 91
        4
280
     0
281
     0
  0
CLASS
  1
VISUALSTYLE
  2
AcDbVisualStyle
  3
ObjectDBX Classes
 90
     4095
 91
        4
280
     0
281
     0
  0
CLASS
  1
MATERIAL
  2
AcDbMaterial
  3
ObjectDBX Classes
 90
     1153
 91
        4
280
     0
281
     0
  0
CLASS
  1
SUN
  2
AcDbSun
  3
SCENEOE
 90
     1024
 91
        4
280
     0
281
     0
  0
ENDSEC
  0
SECTION
  2
TABLES
  0
TABLE
  2
VPORT
  5
8
330
0
100
AcDbSymbolTable
 70
     1
  0
VPORT
  5
29
330
8
100
AcDbSymbolTableRecord
100
AcDbViewportTableRecord
  2
*Active
 70
     0
 10
0.0
 20
0.0
 11
1.0
 21
1.0
 12
0.0
 22
0.0
 13
0.0
 23
0.0
 14
0.5
 24
0.5
 15
0.5
 25
0.5
 16
0.0
 26
0.0
 36
1.0
 17
12.74991805236807
 27
-4.999919443194448
 37
0.0
 40
9.999838886388897
 41
2.550024694842314
 42
50.0
 43
0.0
 44
0.0
 50
0.0
 51
0.0
 71
     0
 72
   100
 73
     1
 74
     3
 75
     0
 76
     0
 77
     0
 78
     0
281
     0
 65
     1
110
0.0
120
0.0
130
0.0
111
1.0
121
0.0
131
0.0
112
0.0
122
1.0
132
0.0
 79
     0
146
0.0
 60
     3
 61
     5
292
     1
282
     1
141
0.0
142
0.0
 63
   250
361
3F
  0
ENDTAB
  0
TABLE
  2
LTYPE
  5
5
330
0
100
AcDbSymbolTable
 70
     1
  0
LTYPE
  5
14
330
5
100
AcDbSymbolTableRecord
100
AcDbLinetypeTableRecord
  2
ByBlock
 70
     0
  3

 72
    65
 73
     0
 40
0.0
  0
LTYPE
  5
15
330
5
100
AcDbSymbolTableRecord
100
AcDbLinetypeTableRecord
  2
ByLayer
 70
     0
  3

 72
    65
 73
     0
 40
0.0
  0
LTYPE
  5
16
330
5
100
AcDbSymbolTableRecord
100
AcDbLinetypeTableRecord
  2
Continuous
 70
     0
  3
Solid line
 72
    65
 73
     0
 40
0.0
  0
ENDTAB
  0
TABLE
  2
LAYER
  5
2
330
0
100
AcDbSymbolTable
 70
     2
  0
LAYER
  5
10
330
2
100
AcDbSymbolTableRecord
100
AcDbLayerTableRecord
  2
0
 70
     0
 62
     7
  6
Continuous
370
    -3
390
F
347
3E
  0
LAYER
  5
40
330
2
100
AcDbSymbolTableRecord
100
AcDbLayerTableRecord
  2
Layer 1
 70
     0
 62
     7
  6
Continuous
370
    -3
390
F
347
3E
  0
ENDTAB
  0
TABLE
  2
STYLE
  5
3
330
0
100
AcDbSymbolTable
 70
     1
  0
STYLE
  5
11
330
3
100
AcDbSymbolTableRecord
100
AcDbTextStyleTableRecord
  2
Standard
 70
     0
 40
0.0
 41
1.0
 50
0.0
 71
     0
 42
0.2
  3
txt
  4

  0
ENDTAB
  0
TABLE
  2
VIEW
  5
6
330
0
100
AcDbSymbolTable
 70
     0
  0
ENDTAB
  0
TABLE
  2
UCS
  5
7
330
0
100
AcDbSymbolTable
 70
     0
  0
ENDTAB
  0
TABLE
  2
APPID
  5
9
330
0
100
AcDbSymbolTable
 70
     1
  0
APPID
  5
12
330
9
100
AcDbSymbolTableRecord
100
AcDbRegAppTableRecord
  2
ACAD
 70
     0
  0
ENDTAB
  0
TABLE
  2
DIMSTYLE
  5
A
330
0
100
AcDbSymbolTable
 70
     1
100
AcDbDimStyleTable
  0
DIMSTYLE
105
27
330
A
100
AcDbSymbolTableRecord
100
AcDbDimStyleTableRecord
  2
Standard
 70
     0
178
     0
340
11
  0
ENDTAB
  0
TABLE
  2
BLOCK_RECORD
  5
1
330
0
100
AcDbSymbolTable
 70
    19
  0
BLOCK_RECORD
  5
1F
330
1
100
AcDbSymbolTableRecord
100
AcDbBlockTableRecord
  2
*Model_Space
340
22
 70
     0
280
     1
281
     0
  0
BLOCK_RECORD
  5
1B
330
1
100
AcDbSymbolTableRecord
100
AcDbBlockTableRecord
  2
*Paper_Space
340
1E
 70
     0
280
     1
281
     0
  0
BLOCK_RECORD
  5
23
330
1
100
AcDbSymbolTableRecord
100
AcDbBlockTableRecord
  2
*Paper_Space0
340
26
 70
     0
280
     1
281
     0
  0
BLOCK_RECORD
  5
41
330
1
100
AcDbSymbolTableRecord
100
AcDbBlockTableRecord
  2
block 2
340
0
102
{BLKREFS
331
42
102
}
 70
     0
280
     1
281
     0
  0
BLOCK_RECORD
  5
47
330
1
100
AcDbSymbolTableRecord
100
AcDbBlockTableRecord
  2
block 3
340
0
102
{BLKREFS
331
48
102
}
 70
     0
280
     1
281
     0
  0
BLOCK_RECORD
  5
4D
330
1
100
AcDbSymbolTableRecord
100
AcDbBlockTableRecord
  2
block 4
340
0
102
{BLKREFS
331
4E
102
}
 70
     0
280
     1
281
     0
  0
BLOCK_RECORD
  5
53
330
1
100
AcDbSymbolTableRecord
100
AcDbBlockTableRecord
  2
block 5
340
0
102
{BLKREFS
331
54
102
}
 70
     0
280
     1
281
     0
  0
BLOCK_RECORD
  5
59
330
1
100
AcDbSymbolTableRecord
100
AcDbBlockTableRecord
  2
block 6
340
0
102
{BLKREFS
331
5A
102
}
 70
     0
280
     1
281
     0
  0
BLOCK_RECORD
  5
5F
330
1
100
AcDbSymbolTableRecord
100
AcDbBlockTableRecord
  2
block 7
340
0
102
{BLKREFS
331
60
102
}
 70
     0
280
     1
281
     0
  0
BLOCK_RECORD
  5
65
330
1
100
AcDbSymbolTableRecord
100
AcDbBlockTableRecord
  2
block 8
340
0
102
{BLKREFS
331
66
102
}
 70
     0
280
     1
281
     0
  0
BLOCK_RECORD
  5
6B
330
1
100
AcDbSymbolTableRecord
100
AcDbBlockTableRecord
  2
block 9
340
0
102
{BLKREFS
331
6C
102
}
 70
     0
280
     1
281
     0
  0
BLOCK_RECORD
  5
71
330
1
100
AcDbSymbolTableRecord
100
AcDbBlockTableRecord
  2
block 10
340
0
102
{BLKREFS
331
72
102
}
 70
     0
280
     1
281
     0
  0
BLOCK_RECORD
  5
77
330
1
100
AcDbSymbolTableRecord
100
AcDbBlockTableRecord
  2
block 11
340
0
102
{BLKREFS
331
78
102
}
 70
     0
280
     1
281
     0
  0
BLOCK_RECORD
  5
7D
330
1
100
AcDbSymbolTableRecord
100
AcDbBlockTableRecord
  2
block 12
340
0
102
{BLKREFS
331
7E
102
}
 70
     0
280
     1
281
     0
  0
BLOCK_RECORD
  5
83
330
1
100
AcDbSymbolTableRecord
100
AcDbBlockTableRecord
  2
block 13
340
0
102
{BLKREFS
331
84
102
}
 70
     0
280
     1
281
     0
  0
BLOCK_RECORD
  5
89
330
1
100
AcDbSymbolTableRecord
100
AcDbBlockTableRecord
  2
block 14
340
0
102
{BLKREFS
331
8A
102
}
 70
     0
280
     1
281
     0
  0
BLOCK_RECORD
  5
8F
330
1
100
AcDbSymbolTableRecord
100
AcDbBlockTableRecord
  2
block 15
340
0
102
{BLKREFS
331
90
102
}
 70
     0
280
     1
281
     0
  0
BLOCK_RECORD
  5
95
330
1
100
AcDbSymbolTableRecord
100
AcDbBlockTableRecord
  2
block 16
340
0
102
{BLKREFS
331
96
102
}
 70
     0
280
     1
281
     0
  0
BLOCK_RECORD
  5
9B
330
1
100
AcDbSymbolTableRecord
100
AcDbBlockTableRecord
  2
block 17
340
0
102
{BLKREFS
331
9C
102
}
 70
     0
280
     1
281
     0
  0
BLOCK_RECORD
  5
A1
330
1
100
AcDbSymbolTableRecord
100
AcDbBlockTableRecord
  2
block 18
340
0
102
{BLKREFS
331
A2
102
}
 70
     0
280
     1
281
     0
  0
BLOCK_RECORD
  5
A7
330
1
100
AcDbSymbolTableRecord
100
AcDbBlockTableRecord
  2
block 19
340
0
102
{BLKREFS
331
A8
102
}
 70
     0
280
     1
281
     0
  0
ENDTAB
  0
ENDSEC
  0
SECTION
  2
BLOCKS
  0
BLOCK
  5
20
330
1F
100
AcDbEntity
  8
0
100
AcDbBlockBegin
  2
*Model_Space
 70
     0
 10
0.0
 20
0.0
 30
0.0
  3
*Model_Space
  1

  0
ENDBLK
  5
21
330
1F
100
AcDbEntity
  8
0
100
AcDbBlockEnd
  0
BLOCK
  5
1C
330
1B
100
AcDbEntity
 67
     1
  8
0
100
AcDbBlockBegin
  2
*Paper_Space
 70
     0
 10
0.0
 20
0.0
 30
0.0
  3
*Paper_Space
  1

  0
ENDBLK
  5
1D
330
1B
100
AcDbEntity
 67
     1
  8
0
100
AcDbBlockEnd
  0
BLOCK
  5
24
330
23
100
AcDbEntity
  8
0
100
AcDbBlockBegin
  2
*Paper_Space0
 70
     0
 10
0.0
 20
0.0
 30
0.0
  3
*Paper_Space0
  1

  0
ENDBLK
  5
25
330
23
100
AcDbEntity
  8
0
100
AcDbBlockEnd
  0
BLOCK
  5
43
330
41
100
AcDbEntity
  8
0
100
AcDbBlockBegin
  2
block 2
 70
     0
 10
0.0
 20
0.0
 30
0.0
  3
block 2
  1

  0
SPLINE
  5
45
330
41
100
AcDbEntity
  8
Layer 1
370
     0
100
AcDbSpline
210
0.0
220
0.0
230
1.0
 70
    11
 71
     3
 72
    17
 73
    13
 74
     0
 42
0.0000000001
 43
0.0000000001
 12
1.0
 22
0.0
 32
0.0
 13
1.0
 23
0.0
 33
0.0
 40
0.0
 40
0.0
 40
0.0
 40
0.0
 40
1.0
 40
1.0
 40
1.0
 40
2.0
 40
2.0
 40
2.0
 40
3.0
 40
3.0
 40
3.0
 40
4.0
 40
4.0
 40
4.0
 40
4.0
 10
19.83500003597388
 20
-1.900084643390278
 30
0.0
 10
19.83493645795228
 20
-1.809072454856494
 30
0.0
 10
19.90894473264668
 20
-1.734926618706858
 30
0.0
 10
19.99996690894402
 20
-1.734998955412381
 30
0.0
 10
20.09117466433148
 20
-1.735071435311665
 30
0.0
 10
20.16487750975663
 20
-1.808613674038724
 30
0.0
 10
20.16499984494384
 20
-1.899992116367086
 30
0.0
 10
20.16512170281863
 20
-1.991015032498754
 30
0.0
 10
20.09098851246637
 20
-2.065023835220087
 30
0.0
 10
19.99995764908205
 20
-2.065001091280694
 30
0.0
 10
19.90902694972046
 20
-2.064978371206891
 30
0.0
 10
19.8350635513482
 20
-1.991033456760273
 30
0.0
 10
19.83500003597388
 20
-1.900084643390278
 30
0.0
  0
HATCH
  5
46
330
41
100
AcDbEntity
  8
Layer 1
 62
     2
420
 16773376
100
AcDbHatch
 10
0.0
 20
0.0
 30
0.0
210
0.0
220
0.0
230
1.0
  2
SOLID
 70
     1
 71
     0
 91
        1
 92
        1
 93
        1
 72
     4
 94
        3
 73
     0
 74
     1
 95
       17
 96
       13
 40
0.0
 40
0.0
 40
0.0
 40
0.0
 40
1.0
 40
1.0
 40
1.0
 40
2.0
 40
2.0
 40
2.0
 40
3.0
 40
3.0
 40
3.0
 40
4.0
 40
4.0
 40
4.0
 40
4.0
 10
19.83500003597388
 20
-1.900084643390278
 10
19.83493645795228
 20
-1.809072454856494
 10
19.90894473264668
 20
-1.734926618706858
 10
19.99996690894402
 20
-1.734998955412381
 10
20.09117466433148
 20
-1.735071435311665
 10
20.16487750975663
 20
-1.808613674038724
 10
20.16499984494384
 20
-1.899992116367086
 10
20.16512170281863
 20
-1.991015032498754
 10
20.09098851246637
 20
-2.065023835220087
 10
19.99995764908205
 20
-2.065001091280694
 10
19.90902694972046
 20
-2.064978371206891
 10
19.8350635513482
 20
-1.991033456760273
 10
19.83500003597388
 20
-1.900084643390278
 97
        0
 97
        0
 75
     2
 76
     1
 98
        0
  0
ENDBLK
  5
44
330
41
100
AcDbEntity
  8
0
100
AcDbBlockEnd
  0
BLOCK
  5
49
330
47
100
AcDbEntity
  8
0
100
AcDbBlockBegin
  2
block 3
 70
     0
 10
0.0
 20
0.0
 30
0.0
  3
block 3
  1

  0
SPLINE
  5
4B
330
47
100
AcDbEntity
  8
Layer 1
370
     0
100
AcDbSpline
210
0.0
220
0.0
230
1.0
 70
    11
 71
     3
 72
    17
 73
    13
 74
     0
 42
0.0000000001
 43
0.0000000001
 12
1.0
 22
0.0
 32
0.0
 13
1.0
 23
0.0
 33
0.0
 40
0.0
 40
0.0
 40
0.0
 40
0.0
 40
1.0
 40
1.0
 40
1.0
 40
2.0
 40
2.0
 40
2.0
 40
3.0
 40
3.0
 40
3.0
 40
4.0
 40
4.0
 40
4.0
 40
4.0
 10
19.83500003597388
 20
-8.10008464184028
 30
0.0
 10
19.83493645795228
 20
-8.009072453306464
 30
0.0
 10
19.90894473264668
 20
-7.93492661715686
 30
0.0
 10
19.99996690894402
 20
-7.934998953862383
 30
0.0
 10
20.09117466433148
 20
-7.935071433761634
 30
0.0
 10
20.16487750975663
 20
-8.008613672488693
 30
0.0
 10
20.16499984494384
 20
-8.099992114817056
 30
0.0
 10
20.16512170281863
 20
-8.191015030948723
 30
0.0
 10
20.09098851246637
 20
-8.265023833670057
 30
0.0
 10
19.99995764908205
 20
-8.265001089730664
 30
0.0
 10
19.90902694972046
 20
-8.264978369656893
 30
0.0
 10
19.8350635513482
 20
-8.191033455210242
 30
0.0
 10
19.83500003597388
 20
-8.10008464184028
 30
0.0
  0
HATCH
  5
4C
330
47
100
AcDbEntity
  8
Layer 1
 62
     2
420
 16773376
100
AcDbHatch
 10
0.0
 20
0.0
 30
0.0
210
0.0
220
0.0
230
1.0
  2
SOLID
 70
     1
 71
     0
 91
        1
 92
        1
 93
        1
 72
     4
 94
        3
 73
     0
 74
     1
 95
       17
 96
       13
 40
0.0
 40
0.0
 40
0.0
 40
0.0
 40
1.0
 40
1.0
 40
1.0
 40
2.0
 40
2.0
 40
2.0
 40
3.0
 40
3.0
 40
3.0
 40
4.0
 40
4.0
 40
4.0
 40
4.0
 10
19.83500003597388
 20
-8.10008464184028
 10
19.83493645795228
 20
-8.009072453306464
 10
19.90894473264668
 20
-7.93492661715686
 10
19.99996690894402
 20
-7.934998953862383
 10
20.09117466433148
 20
-7.935071433761634
 10
20.16487750975663
 20
-8.008613672488693
 10
20.16499984494384
 20
-8.099992114817056
 10
20.16512170281863
 20
-8.191015030948723
 10
20.09098851246637
 20
-8.265023833670057
 10
19.99995764908205
 20
-8.265001089730664
 10
19.90902694972046
 20
-8.264978369656893
 10
19.8350635513482
 20
-8.191033455210242
 10
19.83500003597388
 20
-8.10008464184028
 97
        0
 97
        0
 75
     2
 76
     1
 98
        0
  0
ENDBLK
  5
4A
330
47
100
AcDbEntity
  8
0
100
AcDbBlockEnd
  0
BLOCK
  5
4F
330
4D
100
AcDbEntity
  8
0
100
AcDbBlockBegin
  2
block 4
 70
     0
 10
0.0
 20
0.0
 30
0.0
  3
block 4
  1

  0
SPLINE
  5
51
330
4D
100
AcDbEntity
  8
Layer 1
370
     0
100
AcDbSpline
210
0.0
220
0.0
230
1.0
 70
    11
 71
     3
 72
    17
 73
    13
 74
     0
 42
0.0000000001
 43
0.0000000001
 12
1.0
 22
0.0
 32
0.0
 13
1.0
 23
0.0
 33
0.0
 40
0.0
 40
0.0
 40
0.0
 40
0.0
 40
1.0
 40
1.0
 40
1.0
 40
2.0
 40
2.0
 40
2.0
 40
3.0
 40
3.0
 40
3.0
 40
4.0
 40
4.0
 40
4.0
 40
4.0
 10
21.83500003547388
 20
-2.300084643290283
 30
0.0
 10
21.83493645745227
 20
-2.209072454756499
 30
0.0
 10
21.90894473214667
 20
-2.134926618606864
 30
0.0
 10
21.99996690844401
 20
-2.134998955312386
 30
0.0
 10
22.09117466383147
 20
-2.13507143521167
 30
0.0
 10
22.16487750925662
 20
-2.208613673938729
 30
0.0
 10
22.16499984444384
 20
-2.299992116267091
 30
0.0
 10
22.16512170231863
 20
-2.391015032398759
 30
0.0
 10
22.09098851196637
 20
-2.465023835120092
 30
0.0
 10
21.99995764858204
 20
-2.465001091180699
 30
0.0
 10
21.90902694922045
 20
-2.464978371106896
 30
0.0
 10
21.8350635508482
 20
-2.391033456660278
 30
0.0
 10
21.83500003547388
 20
-2.300084643290283
 30
0.0
  0
HATCH
  5
52
330
4D
100
AcDbEntity
  8
Layer 1
 62
     2
420
 16773376
100
AcDbHatch
 10
0.0
 20
0.0
 30
0.0
210
0.0
220
0.0
230
1.0
  2
SOLID
 70
     1
 71
     0
 91
        1
 92
        1
 93
        1
 72
     4
 94
        3
 73
     0
 74
     1
 95
       17
 96
       13
 40
0.0
 40
0.0
 40
0.0
 40
0.0
 40
1.0
 40
1.0
 40
1.0
 40
2.0
 40
2.0
 40
2.0
 40
3.0
 40
3.0
 40
3.0
 40
4.0
 40
4.0
 40
4.0
 40
4.0
 10
21.83500003547388
 20
-2.300084643290283
 10
21.83493645745227
 20
-2.209072454756499
 10
21.90894473214667
 20
-2.134926618606864
 10
21.99996690844401
 20
-2.134998955312386
 10
22.09117466383147
 20
-2.13507143521167
 10
22.16487750925662
 20
-2.208613673938729
 10
22.16499984444384
 20
-2.299992116267091
 10
22.16512170231863
 20
-2.391015032398759
 10
22.09098851196637
 20
-2.465023835120092
 10
21.99995764858204
 20
-2.465001091180699
 10
21.90902694922045
 20
-2.464978371106896
 10
21.8350635508482
 20
-2.391033456660278
 10
21.83500003547388
 20
-2.300084643290283
 97
        0
 97
        0
 75
     2
 76
     1
 98
        0
  0
ENDBLK
  5
50
330
4D
100
AcDbEntity
  8
0
100
AcDbBlockEnd
  0
BLOCK
  5
55
330
53
100
AcDbEntity
  8
0
100
AcDbBlockBegin
  2
block 5
 70
     0
 10
0.0
 20
0.0
 30
0.0
  3
block 5
  1

  0
SPLINE
  5
57
330
53
100
AcDbEntity
  8
Layer 1
370
     0
100
AcDbSpline
210
0.0
220
0.0
230
1.0
 70
    11
 71
     3
 72
    17
 73
    13
 74
     0
 42
0.0000000001
 43
0.0000000001
 12
1.0
 22
0.0
 32
0.0
 13
1.0
 23
0.0
 33
0.0
 40
0.0
 40
0.0
 40
0.0
 40
0.0
 40
1.0
 40
1.0
 40
1.0
 40
2.0
 40
2.0
 40
2.0
 40
3.0
 40
3.0
 40
3.0
 40
4.0
 40
4.0
 40
4.0
 40
4.0
 10
21.83500003547388
 20
-7.700084641940306
 30
0.0
 10
21.83493645745227
 20
-7.60907245340649
 30
0.0
 10
21.90894473214667
 20
-7.534926617256887
 30
0.0
 10
21.99996690844401
 20
-7.534998953962409
 30
0.0
 10
22.09117466383147
 20
-7.535071433861662
 30
0.0
 10
22.16487750925662
 20
-7.608613672588721
 30
0.0
 10
22.16499984444384
 20
-7.699992114917082
 30
0.0
 10
22.16512170231863
 20
-7.79101503104875
 30
0.0
 10
22.09098851196637
 20
-7.865023833770083
 30
0.0
 10
21.99995764858204
 20
-7.865001089830691
 30
0.0
 10
21.90902694922045
 20
-7.864978369756919
 30
0.0
 10
21.8350635508482
 20
-7.791033455310269
 30
0.0
 10
21.83500003547388
 20
-7.700084641940306
 30
0.0
  0
HATCH
  5
58
330
53
100
AcDbEntity
  8
Layer 1
 62
     2
420
 16773376
100
AcDbHatch
 10
0.0
 20
0.0
 30
0.0
210
0.0
220
0.0
230
1.0
  2
SOLID
 70
     1
 71
     0
 91
        1
 92
        1
 93
        1
 72
     4
 94
        3
 73
     0
 74
     1
 95
       17
 96
       13
 40
0.0
 40
0.0
 40
0.0
 40
0.0
 40
1.0
 40
1.0
 40
1.0
 40
2.0
 40
2.0
 40
2.0
 40
3.0
 40
3.0
 40
3.0
 40
4.0
 40
4.0
 40
4.0
 40
4.0
 10
21.83500003547388
 20
-7.700084641940306
 10
21.83493645745227
 20
-7.60907245340649
 10
21.90894473214667
 20
-7.534926617256887
 10
21.99996690844401
 20
-7.534998953962409
 10
22.09117466383147
 20
-7.535071433861662
 10
22.16487750925662
 20
-7.608613672588721
 10
22.16499984444384
 20
-7.699992114917082
 10
22.16512170231863
 20
-7.79101503104875
 10
22.09098851196637
 20
-7.865023833770083
 10
21.99995764858204
 20
-7.865001089830691
 10
21.90902694922045
 20
-7.864978369756919
 10
21.8350635508482
 20
-7.791033455310269
 10
21.83500003547388
 20
-7.700084641940306
 97
        0
 97
        0
 75
     2
 76
     1
 98
        0
  0
ENDBLK
  5
56
330
53
100
AcDbEntity
  8
0
100
AcDbBlockEnd
  0
BLOCK
  5
5B
330
59
100
AcDbEntity
  8
0
100
AcDbBlockBegin
  2
block 6
 70
     0
 10
0.0
 20
0.0
 30
0.0
  3
block 6
  1

  0
SPLINE
  5
5D
330
59
100
AcDbEntity
  8
Layer 1
370
     0
100
AcDbSpline
210
0.0
220
0.0
230
1.0
 70
    11
 71
     3
 72
    17
 73
    13
 74
     0
 42
0.0000000001
 43
0.0000000001
 12
1.0
 22
0.0
 32
0.0
 13
1.0
 23
0.0
 33
0.0
 40
0.0
 40
0.0
 40
0.0
 40
0.0
 40
1.0
 40
1.0
 40
1.0
 40
2.0
 40
2.0
 40
2.0
 40
3.0
 40
3.0
 40
3.0
 40
4.0
 40
4.0
 40
4.0
 40
4.0
 10
0.5350000407989068
 20
-1.900084643390278
 30
0.0
 10
0.5349364627773032
 20
-1.809072454856494
 30
0.0
 10
0.6089447374717051
 20
-1.734926618706858
 30
0.0
 10
0.6999669137690429
 20
-1.734998955412381
 30
0.0
 10
0.7911746691565017
 20
-1.735071435311665
 30
0.0
 10
0.8648775145816502
 20
-1.808613674038724
 30
0.0
 10
0.8649998497688683
 20
-1.899992116367086
 30
0.0
 10
0.8651217076436568
 20
-1.991015032498754
 30
0.0
 10
0.790988517291401
 20
-2.065023835220087
 30
0.0
 10
0.6999576539070725
 20
-2.065001091280694
 30
0.0
 10
0.6090269545454852
 20
-2.064978371206891
 30
0.0
 10
0.53506355617323
 20
-1.991033456760273
 30
0.0
 10
0.5350000407989068
 20
-1.900084643390278
 30
0.0
  0
HATCH
  5
5E
330
59
100
AcDbEntity
  8
Layer 1
 62
     2
420
 16773376
100
AcDbHatch
 10
0.0
 20
0.0
 30
0.0
210
0.0
220
0.0
230
1.0
  2
SOLID
 70
     1
 71
     0
 91
        1
 92
        1
 93
        1
 72
     4
 94
        3
 73
     0
 74
     1
 95
       17
 96
       13
 40
0.0
 40
0.0
 40
0.0
 40
0.0
 40
1.0
 40
1.0
 40
1.0
 40
2.0
 40
2.0
 40
2.0
 40
3.0
 40
3.0
 40
3.0
 40
4.0
 40
4.0
 40
4.0
 40
4.0
 10
0.5350000407989068
 20
-1.900084643390278
 10
0.5349364627773032
 20
-1.809072454856494
 10
0.6089447374717051
 20
-1.734926618706858
 10
0.6999669137690429
 20
-1.734998955412381
 10
0.7911746691565017
 20
-1.735071435311665
 10
0.8648775145816502
 20
-1.808613674038724
 10
0.8649998497688683
 20
-1.899992116367086
 10
0.8651217076436568
 20
-1.991015032498754
 10
0.790988517291401
 20
-2.065023835220087
 10
0.6999576539070725
 20
-2.065001091280694
 10
0.6090269545454852
 20
-2.064978371206891
 10
0.53506355617323
 20
-1.991033456760273
 10
0.5350000407989068
 20
-1.900084643390278
 97
        0
 97
        0
 75
     2
 76
     1
 98
        0
  0
ENDBLK
  5
5C
330
59
100
AcDbEntity
  8
0
100
AcDbBlockEnd
  0
BLOCK
  5
61
330
5F
100
AcDbEntity
  8
0
100
AcDbBlockBegin
  2
block 7
 70
     0
 10
0.0
 20
0.0
 30
0.0
  3
block 7
  1

  0
SPLINE
  5
63
330
5F
100
AcDbEntity
  8
Layer 1
370
     0
100
AcDbSpline
210
0.0
220
0.0
230
1.0
 70
    11
 71
     3
 72
    17
 73
    13
 74
     0
 42
0.0000000001
 43
0.0000000001
 12
1.0
 22
0.0
 32
0.0
 13
1.0
 23
0.0
 33
0.0
 40
0.0
 40
0.0
 40
0.0
 40
0.0
 40
1.0
 40
1.0
 40
1.0
 40
2.0
 40
2.0
 40
2.0
 40
3.0
 40
3.0
 40
3.0
 40
4.0
 40
4.0
 40
4.0
 40
4.0
 10
0.5350000407989068
 20
-8.10008464184028
 30
0.0
 10
0.5349364627773032
 20
-8.009072453306464
 30
0.0
 10
0.6089447374717051
 20
-7.93492661715686
 30
0.0
 10
0.6999669137690429
 20
-7.934998953862383
 30
0.0
 10
0.7911746691565017
 20
-7.935071433761634
 30
0.0
 10
0.8648775145816502
 20
-8.008613672488693
 30
0.0
 10
0.8649998497688683
 20
-8.099992114817056
 30
0.0
 10
0.8651217076436568
 20
-8.191015030948723
 30
0.0
 10
0.790988517291401
 20
-8.265023833670057
 30
0.0
 10
0.6999576539070725
 20
-8.265001089730664
 30
0.0
 10
0.6090269545454852
 20
-8.264978369656893
 30
0.0
 10
0.53506355617323
 20
-8.191033455210242
 30
0.0
 10
0.5350000407989068
 20
-8.10008464184028
 30
0.0
  0
HATCH
  5
64
330
5F
100
AcDbEntity
  8
Layer 1
 62
     2
420
 16773376
100
AcDbHatch
 10
0.0
 20
0.0
 30
0.0
210
0.0
220
0.0
230
1.0
  2
SOLID
 70
     1
 71
     0
 91
        1
 92
        1
 93
        1
 72
     4
 94
        3
 73
     0
 74
     1
 95
       17
 96
       13
 40
0.0
 40
0.0
 40
0.0
 40
0.0
 40
1.0
 40
1.0
 40
1.0
 40
2.0
 40
2.0
 40
2.0
 40
3.0
 40
3.0
 40
3.0
 40
4.0
 40
4.0
 40
4.0
 40
4.0
 10
0.5350000407989068
 20
-8.10008464184028
 10
0.5349364627773032
 20
-8.009072453306464
 10
0.6089447374717051
 20
-7.93492661715686
 10
0.6999669137690429
 20
-7.934998953862383
 10
0.7911746691565017
 20
-7.935071433761634
 10
0.8648775145816502
 20
-8.008613672488693
 10
0.8649998497688683
 20
-8.099992114817056
 10
0.8651217076436568
 20
-8.191015030948723
 10
0.790988517291401
 20
-8.265023833670057
 10
0.6999576539070725
 20
-8.265001089730664
 10
0.6090269545454852
 20
-8.264978369656893
 10
0.53506355617323
 20
-8.191033455210242
 10
0.5350000407989068
 20
-8.10008464184028
 97
        0
 97
        0
 75
     2
 76
     1
 98
        0
  0
ENDBLK
  5
62
330
5F
100
AcDbEntity
  8
0
100
AcDbBlockEnd
  0
BLOCK
  5
67
330
65
100
AcDbEntity
  8
0
100
AcDbBlockBegin
  2
block 8
 70
     0
 10
0.0
 20
0.0
 30
0.0
  3
block 8
  1

  0
SPLINE
  5
69
330
65
100
AcDbEntity
  8
Layer 1
370
     0
100
AcDbSpline
210
0.0
220
0.0
230
1.0
 70
    11
 71
     3
 72
    17
 73
    13
 74
     0
 42
0.0000000001
 43
0.0000000001
 12
1.0
 22
0.0
 32
0.0
 13
1.0
 23
0.0
 33
0.0
 40
0.0
 40
0.0
 40
0.0
 40
0.0
 40
1.0
 40
1.0
 40
1.0
 40
2.0
 40
2.0
 40
2.0
 40
3.0
 40
3.0
 40
3.0
 40
4.0
 40
4.0
 40
4.0
 40
4.0
 10
7.99999999800001
 20
-3.999999998999989
 30
0.0
 10
7.99999999800001
 20
-4.667353018228546
 30
0.0
 10
7.99999999800001
 20
-5.33271988972468
 30
0.0
 10
7.99999999800001
 20
-5.999999998499983
 30
0.0
 10
6.666727798908508
 20
-5.999999998499983
 30
0.0
 10
5.334840897578457
 20
-5.999999998499983
 30
0.0
 10
3.999999999000021
 20
-5.999999998499983
 30
0.0
 10
3.999999999000021
 20
-5.333843935738908
 30
0.0
 10
3.999999999000021
 20
-4.667887373306826
 30
0.0
 10
3.999999999000021
 20
-3.999999998999989
 30
0.0
 10
5.331509693687194
 20
-3.999999998999989
 30
0.0
 10
6.663389756555424
 20
-3.999999998999989
 30
0.0
 10
7.99999999800001
 20
-3.999999998999989
 30
0.0
  0
HATCH
  5
6A
330
65
100
AcDbEntity
  8
Layer 1
 62
     9
420
 12303808
100
AcDbHatch
 10
0.0
 20
0.0
 30
0.0
210
0.0
220
0.0
230
1.0
  2
SOLID
 70
     1
 71
     0
 91
        1
 92
        1
 93
        1
 72
     4
 94
        3
 73
     0
 74
     1
 95
       17
 96
       13
 40
0.0
 40
0.0
 40
0.0
 40
0.0
 40
1.0
 40
1.0
 40
1.0
 40
2.0
 40
2.0
 40
2.0
 40
3.0
 40
3.0
 40
3.0
 40
4.0
 40
4.0
 40
4.0
 40
4.0
 10
7.99999999800001
 20
-3.999999998999989
 10
7.99999999800001
 20
-4.667353018228546
 10
7.99999999800001
 20
-5.33271988972468
 10
7.99999999800001
 20
-5.999999998499983
 10
6.666727798908508
 20
-5.999999998499983
 10
5.334840897578457
 20
-5.999999998499983
 10
3.999999999000021
 20
-5.999999998499983
 10
3.999999999000021
 20
-5.333843935738908
 10
3.999999999000021
 20
-4.667887373306826
 10
3.999999999000021
 20
-3.999999998999989
 10
5.331509693687194
 20
-3.999999998999989
 10
6.663389756555424
 20
-3.999999998999989
 10
7.99999999800001
 20
-3.999999998999989
 97
        0
 97
        0
 75
     2
 76
     1
 98
        0
  0
ENDBLK
  5
68
330
65
100
AcDbEntity
  8
0
100
AcDbBlockEnd
  0
BLOCK
  5
6D
330
6B
100
AcDbEntity
  8
0
100
AcDbBlockBegin
  2
block 9
 70
     0
 10
0.0
 20
0.0
 30
0.0
  3
block 9
  1

  0
SPLINE
  5
6F
330
6B
100
AcDbEntity
  8
Layer 1
370
     0
100
AcDbSpline
210
0.0
220
0.0
230
1.0
 70
    11
 71
     3
 72
    17
 73
    13
 74
     0
 42
0.0000000001
 43
0.0000000001
 12
1.0
 22
0.0
 32
0.0
 13
1.0
 23
0.0
 33
0.0
 40
0.0
 40
0.0
 40
0.0
 40
0.0
 40
1.0
 40
1.0
 40
1.0
 40
2.0
 40
2.0
 40
2.0
 40
3.0
 40
3.0
 40
3.0
 40
4.0
 40
4.0
 40
4.0
 40
4.0
 10
5.335000039598906
 20
-2.55008464322779
 30
0.0
 10
5.334936461577303
 20
-2.459072454694038
 30
0.0
 10
5.408944736271704
 20
-2.384926618544371
 30
0.0
 10
5.499966912569042
 20
-2.384998955249894
 30
0.0
 10
5.591174667956501
 20
-2.385071435149146
 30
0.0
 10
5.66487751338165
 20
-2.458613673876269
 30
0.0
 10
5.664999848568868
 20
-2.54999211620463
 30
0.0
 10
5.665121706443656
 20
-2.641015032336298
 30
0.0
 10
5.5909885160914
 20
-2.715023835057568
 30
0.0
 10
5.499957652707072
 20
-2.715001091118175
 30
0.0
 10
5.409026953345484
 20
-2.714978371044404
 30
0.0
 10
5.335063554973229
 20
-2.641033456597753
 30
0.0
 10
5.335000039598906
 20
-2.55008464322779
 30
0.0
  0
HATCH
  5
70
330
6B
100
AcDbEntity
  8
Layer 1
 62
     2
420
 16773376
100
AcDbHatch
 10
0.0
 20
0.0
 30
0.0
210
0.0
220
0.0
230
1.0
  2
SOLID
 70
     1
 71
     0
 91
        1
 92
        1
 93
        1
 72
     4
 94
        3
 73
     0
 74
     1
 95
       17
 96
       13
 40
0.0
 40
0.0
 40
0.0
 40
0.0
 40
1.0
 40
1.0
 40
1.0
 40
2.0
 40
2.0
 40
2.0
 40
3.0
 40
3.0
 40
3.0
 40
4.0
 40
4.0
 40
4.0
 40
4.0
 10
5.335000039598906
 20
-2.55008464322779
 10
5.334936461577303
 20
-2.459072454694038
 10
5.408944736271704
 20
-2.384926618544371
 10
5.499966912569042
 20
-2.384998955249894
 10
5.591174667956501
 20
-2.385071435149146
 10
5.66487751338165
 20
-2.458613673876269
 10
5.664999848568868
 20
-2.54999211620463
 10
5.665121706443656
 20
-2.641015032336298
 10
5.5909885160914
 20
-2.715023835057568
 10
5.499957652707072
 20
-2.715001091118175
 10
5.409026953345484
 20
-2.714978371044404
 10
5.335063554973229
 20
-2.641033456597753
 10
5.335000039598906
 20
-2.55008464322779
 97
        0
 97
        0
 75
     2
 76
     1
 98
        0
  0
ENDBLK
  5
6E
330
6B
100
AcDbEntity
  8
0
100
AcDbBlockEnd
  0
BLOCK
  5
73
330
71
100
AcDbEntity
  8
0
100
AcDbBlockBegin
  2
block 10
 70
     0
 10
0.0
 20
0.0
 30
0.0
  3
block 10
  1

  0
SPLINE
  5
75
330
71
100
AcDbEntity
  8
Layer 1
370
     0
100
AcDbSpline
210
0.0
220
0.0
230
1.0
 70
    11
 71
     3
 72
    17
 73
    13
 74
     0
 42
0.0000000001
 43
0.0000000001
 12
1.0
 22
0.0
 32
0.0
 13
1.0
 23
0.0
 33
0.0
 40
0.0
 40
0.0
 40
0.0
 40
0.0
 40
1.0
 40
1.0
 40
1.0
 40
2.0
 40
2.0
 40
2.0
 40
3.0
 40
3.0
 40
3.0
 40
4.0
 40
4.0
 40
4.0
 40
4.0
 10
5.335000039598906
 20
-7.450084642002767
 30
0.0
 10
5.334936461577303
 20
-7.359072453469015
 30
0.0
 10
5.408944736271704
 20
-7.284926617319347
 30
0.0
 10
5.499966912569042
 20
-7.284998954024871
 30
0.0
 10
5.591174667956501
 20
-7.285071433924122
 30
0.0
 10
5.66487751338165
 20
-7.358613672651245
 30
0.0
 10
5.664999848568868
 20
-7.449992114979606
 30
0.0
 10
5.665121706443656
 20
-7.541015031111275
 30
0.0
 10
5.5909885160914
 20
-7.615023833832544
 30
0.0
 10
5.499957652707072
 20
-7.615001089893151
 30
0.0
 10
5.409026953345484
 20
-7.61497836981938
 30
0.0
 10
5.335063554973229
 20
-7.541033455372729
 30
0.0
 10
5.335000039598906
 20
-7.450084642002767
 30
0.0
  0
HATCH
  5
76
330
71
100
AcDbEntity
  8
Layer 1
 62
     2
420
 16773376
100
AcDbHatch
 10
0.0
 20
0.0
 30
0.0
210
0.0
220
0.0
230
1.0
  2
SOLID
 70
     1
 71
     0
 91
        1
 92
        1
 93
        1
 72
     4
 94
        3
 73
     0
 74
     1
 95
       17
 96
       13
 40
0.0
 40
0.0
 40
0.0
 40
0.0
 40
1.0
 40
1.0
 40
1.0
 40
2.0
 40
2.0
 40
2.0
 40
3.0
 40
3.0
 40
3.0
 40
4.0
 40
4.0
 40
4.0
 40
4.0
 10
5.335000039598906
 20
-7.450084642002767
 10
5.334936461577303
 20
-7.359072453469015
 10
5.408944736271704
 20
-7.284926617319347
 10
5.499966912569042
 20
-7.284998954024871
 10
5.591174667956501
 20
-7.285071433924122
 10
5.66487751338165
 20
-7.358613672651245
 10
5.664999848568868
 20
-7.449992114979606
 10
5.665121706443656
 20
-7.541015031111275
 10
5.5909885160914
 20
-7.615023833832544
 10
5.499957652707072
 20
-7.615001089893151
 10
5.409026953345484
 20
-7.61497836981938
 10
5.335063554973229
 20
-7.541033455372729
 10
5.335000039598906
 20
-7.450084642002767
 97
        0
 97
        0
 75
     2
 76
     1
 98
        0
  0
ENDBLK
  5
74
330
71
100
AcDbEntity
  8
0
100
AcDbBlockEnd
  0
BLOCK
  5
79
330
77
100
AcDbEntity
  8
0
100
AcDbBlockBegin
  2
block 11
 70
     0
 10
0.0
 20
0.0
 30
0.0
  3
block 11
  1

  0
SPLINE
  5
7B
330
77
100
AcDbEntity
  8
Layer 1
370
     0
100
AcDbSpline
210
0.0
220
0.0
230
1.0
 70
    11
 71
     3
 72
    17
 73
    13
 74
     0
 42
0.0000000001
 43
0.0000000001
 12
1.0
 22
0.0
 32
0.0
 13
1.0
 23
0.0
 33
0.0
 40
0.0
 40
0.0
 40
0.0
 40
0.0
 40
1.0
 40
1.0
 40
1.0
 40
2.0
 40
2.0
 40
2.0
 40
3.0
 40
3.0
 40
3.0
 40
4.0
 40
4.0
 40
4.0
 40
4.0
 10
5.335000039598906
 20
-1.00008464361529
 30
0.0
 10
5.334936461577303
 20
-0.909072455081538
 30
0.0
 10
5.408944736271704
 20
-0.8349266189318707
 30
0.0
 10
5.499966912569042
 20
-0.8349989556373935
 30
0.0
 10
5.591174667956501
 20
-0.8350714355366452
 30
0.0
 10
5.66487751338165
 20
-0.9086136742637684
 30
0.0
 10
5.664999848568868
 20
-0.9999921165921298
 30
0.0
 10
5.665121706443656
 20
-1.091015032723798
 30
0.0
 10
5.5909885160914
 20
-1.165023835445067
 30
0.0
 10
5.499957652707072
 20
-1.165001091505674
 30
0.0
 10
5.409026953345484
 20
-1.164978371431903
 30
0.0
 10
5.335063554973229
 20
-1.091033456985253
 30
0.0
 10
5.335000039598906
 20
-1.00008464361529
 30
0.0
  0
HATCH
  5
7C
330
77
100
AcDbEntity
  8
Layer 1
 62
     2
420
 16773376
100
AcDbHatch
 10
0.0
 20
0.0
 30
0.0
210
0.0
220
0.0
230
1.0
  2
SOLID
 70
     1
 71
     0
 91
        1
 92
        1
 93
        1
 72
     4
 94
        3
 73
     0
 74
     1
 95
       17
 96
       13
 40
0.0
 40
0.0
 40
0.0
 40
0.0
 40
1.0
 40
1.0
 40
1.0
 40
2.0
 40
2.0
 40
2.0
 40
3.0
 40
3.0
 40
3.0
 40
4.0
 40
4.0
 40
4.0
 40
4.0
 10
5.335000039598906
 20
-1.00008464361529
 10
5.334936461577303
 20
-0.909072455081538
 10
5.408944736271704
 20
-0.8349266189318707
 10
5.499966912569042
 20
-0.8349989556373935
 10
5.591174667956501
 20
-0.8350714355366452
 10
5.66487751338165
 20
-0.9086136742637684
 10
5.664999848568868
 20
-0.9999921165921298
 10
5.665121706443656
 20
-1.091015032723798
 10
5.5909885160914
 20
-1.165023835445067
 10
5.499957652707072
 20
-1.165001091505674
 10
5.409026953345484
 20
-1.164978371431903
 10
5.335063554973229
 20
-1.091033456985253
 10
5.335000039598906
 20
-1.00008464361529
 97
        0
 97
        0
 75
     2
 76
     1
 98
        0
  0
ENDBLK
  5
7A
330
77
100
AcDbEntity
  8
0
100
AcDbBlockEnd
  0
BLOCK
  5
7F
330
7D
100
AcDbEntity
  8
0
100
AcDbBlockBegin
  2
block 12
 70
     0
 10
0.0
 20
0.0
 30
0.0
  3
block 12
  1

  0
SPLINE
  5
81
330
7D
100
AcDbEntity
  8
Layer 1
370
     0
100
AcDbSpline
210
0.0
220
0.0
230
1.0
 70
    11
 71
     3
 72
    17
 73
    13
 74
     0
 42
0.0000000001
 43
0.0000000001
 12
1.0
 22
0.0
 32
0.0
 13
1.0
 23
0.0
 33
0.0
 40
0.0
 40
0.0
 40
0.0
 40
0.0
 40
1.0
 40
1.0
 40
1.0
 40
2.0
 40
2.0
 40
2.0
 40
3.0
 40
3.0
 40
3.0
 40
4.0
 40
4.0
 40
4.0
 40
4.0
 10
5.335000039598906
 20
-9.000084641615267
 30
0.0
 10
5.334936461577303
 20
-8.909072453081516
 30
0.0
 10
5.408944736271704
 20
-8.834926616931847
 30
0.0
 10
5.499966912569042
 20
-8.83499895363737
 30
0.0
 10
5.591174667956501
 20
-8.835071433536623
 30
0.0
 10
5.66487751338165
 20
-8.908613672263746
 30
0.0
 10
5.664999848568868
 20
-8.999992114592107
 30
0.0
 10
5.665121706443656
 20
-9.091015030723774
 30
0.0
 10
5.5909885160914
 20
-9.165023833445044
 30
0.0
 10
5.499957652707072
 20
-9.165001089505651
 30
0.0
 10
5.409026953345484
 20
-9.16497836943188
 30
0.0
 10
5.335063554973229
 20
-9.09103345498523
 30
0.0
 10
5.335000039598906
 20
-9.000084641615267
 30
0.0
  0
HATCH
  5
82
330
7D
100
AcDbEntity
  8
Layer 1
 62
     2
420
 16773376
100
AcDbHatch
 10
0.0
 20
0.0
 30
0.0
210
0.0
220
0.0
230
1.0
  2
SOLID
 70
     1
 71
     0
 91
        1
 92
        1
 93
        1
 72
     4
 94
        3
 73
     0
 74
     1
 95
       17
 96
       13
 40
0.0
 40
0.0
 40
0.0
 40
0.0
 40
1.0
 40
1.0
 40
1.0
 40
2.0
 40
2.0
 40
2.0
 40
3.0
 40
3.0
 40
3.0
 40
4.0
 40
4.0
 40
4.0
 40
4.0
 10
5.335000039598906
 20
-9.000084641615267
 10
5.334936461577303
 20
-8.909072453081516
 10
5.408944736271704
 20
-8.834926616931847
 10
5.499966912569042
 20
-8.83499895363737
 10
5.591174667956501
 20
-8.835071433536623
 10
5.66487751338165
 20
-8.908613672263746
 10
5.664999848568868
 20
-8.999992114592107
 10
5.665121706443656
 20
-9.091015030723774
 10
5.5909885160914
 20
-9.165023833445044
 10
5.499957652707072
 20
-9.165001089505651
 10
5.409026953345484
 20
-9.16497836943188
 10
5.335063554973229
 20
-9.09103345498523
 10
5.335000039598906
 20
-9.000084641615267
 97
        0
 97
        0
 75
     2
 76
     1
 98
        0
  0
ENDBLK
  5
80
330
7D
100
AcDbEntity
  8
0
100
AcDbBlockEnd
  0
BLOCK
  5
85
330
83
100
AcDbEntity
  8
0
100
AcDbBlockBegin
  2
block 13
 70
     0
 10
0.0
 20
0.0
 30
0.0
  3
block 13
  1

  0
SPLINE
  5
87
330
83
100
AcDbEntity
  8
Layer 1
370
     0
100
AcDbSpline
210
0.0
220
0.0
230
1.0
 70
    11
 71
     3
 72
    17
 73
    13
 74
     0
 42
0.0000000001
 43
0.0000000001
 12
1.0
 22
0.0
 32
0.0
 13
1.0
 23
0.0
 33
0.0
 40
0.0
 40
0.0
 40
0.0
 40
0.0
 40
1.0
 40
1.0
 40
1.0
 40
2.0
 40
2.0
 40
2.0
 40
3.0
 40
3.0
 40
3.0
 40
4.0
 40
4.0
 40
4.0
 40
4.0
 10
16.25000005795668
 20
-1.400128247078091
 30
0.0
 10
16.24990372762091
 20
-1.262231908557151
 30
0.0
 10
16.36203747715792
 20
-1.149890479498747
 30
0.0
 10
16.49994986548716
 20
-1.150000079839016
 30
0.0
 10
16.63814343425607
 20
-1.15010989713805
 30
0.0
 10
16.74981441217293
 20
-1.261536790727661
 30
0.0
 10
16.74999976851719
 20
-1.399988055550908
 30
0.0
 10
16.75018440166079
 20
-1.537900647900011
 30
0.0
 10
16.63786138597555
 20
-1.650034451932154
 30
0.0
 10
16.49993583539329
 20
-1.649999991647062
 30
0.0
 10
16.36216204848181
 20
-1.64996556752171
 30
0.0
 10
16.25009629337232
 20
-1.537928563262059
 30
0.0
 10
16.25000005795668
 20
-1.400128247078091
 30
0.0
  0
HATCH
  5
88
330
83
100
AcDbEntity
  8
Layer 1
 62
   230
420
 15466635
100
AcDbHatch
 10
0.0
 20
0.0
 30
0.0
210
0.0
220
0.0
230
1.0
  2
SOLID
 70
     1
 71
     0
 91
        1
 92
        1
 93
        1
 72
     4
 94
        3
 73
     0
 74
     1
 95
       17
 96
       13
 40
0.0
 40
0.0
 40
0.0
 40
0.0
 40
1.0
 40
1.0
 40
1.0
 40
2.0
 40
2.0
 40
2.0
 40
3.0
 40
3.0
 40
3.0
 40
4.0
 40
4.0
 40
4.0
 40
4.0
 10
16.25000005795668
 20
-1.400128247078091
 10
16.24990372762091
 20
-1.262231908557151
 10
16.36203747715792
 20
-1.149890479498747
 10
16.49994986548716
 20
-1.150000079839016
 10
16.63814343425607
 20
-1.15010989713805
 10
16.74981441217293
 20
-1.261536790727661
 10
16.74999976851719
 20
-1.399988055550908
 10
16.75018440166079
 20
-1.537900647900011
 10
16.63786138597555
 20
-1.650034451932154
 10
16.49993583539329
 20
-1.649999991647062
 10
16.36216204848181
 20
-1.64996556752171
 10
16.25009629337232
 20
-1.537928563262059
 10
16.25000005795668
 20
-1.400128247078091
 97
        0
 97
        0
 75
     2
 76
     1
 98
        0
  0
ENDBLK
  5
86
330
83
100
AcDbEntity
  8
0
100
AcDbBlockEnd
  0
BLOCK
  5
8B
330
89
100
AcDbEntity
  8
0
100
AcDbBlockBegin
  2
block 14
 70
     0
 10
0.0
 20
0.0
 30
0.0
  3
block 14
  1

  0
SPLINE
  5
8D
330
89
100
AcDbEntity
  8
Layer 1
370
     0
100
AcDbSpline
210
0.0
220
0.0
230
1.0
 70
    11
 71
     3
 72
    17
 73
    13
 74
     0
 42
0.0000000001
 43
0.0000000001
 12
1.0
 22
0.0
 32
0.0
 13
1.0
 23
0.0
 33
0.0
 40
0.0
 40
0.0
 40
0.0
 40
0.0
 40
1.0
 40
1.0
 40
1.0
 40
2.0
 40
2.0
 40
2.0
 40
3.0
 40
3.0
 40
3.0
 40
4.0
 40
4.0
 40
4.0
 40
4.0
 10
16.25000005795668
 20
-8.600128245278091
 30
0.0
 10
16.24990372762091
 20
-8.46223190675715
 30
0.0
 10
16.36203747715792
 20
-8.349890477698747
 30
0.0
 10
16.49994986548716
 20
-8.350000078039015
 30
0.0
 10
16.63814343425607
 20
-8.350109895338049
 30
0.0
 10
16.74981441217293
 20
-8.46153678892766
 30
0.0
 10
16.74999976851719
 20
-8.599988053750906
 30
0.0
 10
16.75018440166079
 20
-8.737900646100009
 30
0.0
 10
16.63786138597555
 20
-8.850034450132153
 30
0.0
 10
16.49993583539329
 20
-8.84999998984706
 30
0.0
 10
16.36216204848181
 20
-8.849965565721709
 30
0.0
 10
16.25009629337232
 20
-8.737928561462057
 30
0.0
 10
16.25000005795668
 20
-8.600128245278091
 30
0.0
  0
HATCH
  5
8E
330
89
100
AcDbEntity
  8
Layer 1
 62
   230
420
 15466635
100
AcDbHatch
 10
0.0
 20
0.0
 30
0.0
210
0.0
220
0.0
230
1.0
  2
SOLID
 70
     1
 71
     0
 91
        1
 92
        1
 93
        1
 72
     4
 94
        3
 73
     0
 74
     1
 95
       17
 96
       13
 40
0.0
 40
0.0
 40
0.0
 40
0.0
 40
1.0
 40
1.0
 40
1.0
 40
2.0
 40
2.0
 40
2.0
 40
3.0
 40
3.0
 40
3.0
 40
4.0
 40
4.0
 40
4.0
 40
4.0
 10
16.25000005795668
 20
-8.600128245278091
 10
16.24990372762091
 20
-8.46223190675715
 10
16.36203747715792
 20
-8.349890477698747
 10
16.49994986548716
 20
-8.350000078039015
 10
16.63814343425607
 20
-8.350109895338049
 10
16.74981441217293
 20
-8.46153678892766
 10
16.74999976851719
 20
-8.599988053750906
 10
16.75018440166079
 20
-8.737900646100009
 10
16.63786138597555
 20
-8.850034450132153
 10
16.49993583539329
 20
-8.84999998984706
 10
16.36216204848181
 20
-8.849965565721709
 10
16.25009629337232
 20
-8.737928561462057
 10
16.25000005795668
 20
-8.600128245278091
 97
        0
 97
        0
 75
     2
 76
     1
 98
        0
  0
ENDBLK
  5
8C
330
89
100
AcDbEntity
  8
0
100
AcDbBlockEnd
  0
BLOCK
  5
91
330
8F
100
AcDbEntity
  8
0
100
AcDbBlockBegin
  2
block 15
 70
     0
 10
0.0
 20
0.0
 30
0.0
  3
block 15
  1

  0
SPLINE
  5
93
330
8F
100
AcDbEntity
  8
Layer 1
370
     0
100
AcDbSpline
210
0.0
220
0.0
230
1.0
 70
    11
 71
     3
 72
    17
 73
    13
 74
     0
 42
0.0000000001
 43
0.0000000001
 12
1.0
 22
0.0
 32
0.0
 13
1.0
 23
0.0
 33
0.0
 40
0.0
 40
0.0
 40
0.0
 40
0.0
 40
1.0
 40
1.0
 40
1.0
 40
2.0
 40
2.0
 40
2.0
 40
3.0
 40
3.0
 40
3.0
 40
4.0
 40
4.0
 40
4.0
 40
4.0
 10
14.25000005845668
 20
-8.000128245428034
 30
0.0
 10
14.24990372812092
 20
-7.862231906907094
 30
0.0
 10
14.36203747765793
 20
-7.74989047784869
 30
0.0
 10
14.49994986598717
 20
-7.750000078188958
 30
0.0
 10
14.63814343475607
 20
-7.750109895487992
 30
0.0
 10
14.74981441267294
 20
-7.861536789077603
 30
0.0
 10
14.7499997690172
 20
-7.99998805390085
 30
0.0
 10
14.75018440216079
 20
-8.137900646249953
 30
0.0
 10
14.63786138647556
 20
-8.250034450282097
 30
0.0
 10
14.49993583589329
 20
-8.249999989997004
 30
0.0
 10
14.36216204898181
 20
-8.249965565871653
 30
0.0
 10
14.25009629387233
 20
-8.137928561612002
 30
0.0
 10
14.25000005845668
 20
-8.000128245428034
 30
0.0
  0
HATCH
  5
94
330
8F
100
AcDbEntity
  8
Layer 1
 62
   230
420
 15466635
100
AcDbHatch
 10
0.0
 20
0.0
 30
0.0
210
0.0
220
0.0
230
1.0
  2
SOLID
 70
     1
 71
     0
 91
        1
 92
        1
 93
        1
 72
     4
 94
        3
 73
     0
 74
     1
 95
       17
 96
       13
 40
0.0
 40
0.0
 40
0.0
 40
0.0
 40
1.0
 40
1.0
 40
1.0
 40
2.0
 40
2.0
 40
2.0
 40
3.0
 40
3.0
 40
3.0
 40
4.0
 40
4.0
 40
4.0
 40
4.0
 10
14.25000005845668
 20
-8.000128245428034
 10
14.24990372812092
 20
-7.862231906907094
 10
14.36203747765793
 20
-7.74989047784869
 10
14.49994986598717
 20
-7.750000078188958
 10
14.63814343475607
 20
-7.750109895487992
 10
14.74981441267294
 20
-7.861536789077603
 10
14.7499997690172
 20
-7.99998805390085
 10
14.75018440216079
 20
-8.137900646249953
 10
14.63786138647556
 20
-8.250034450282097
 10
14.49993583589329
 20
-8.249999989997004
 10
14.36216204898181
 20
-8.249965565871653
 10
14.25009629387233
 20
-8.137928561612002
 10
14.25000005845668
 20
-8.000128245428034
 97
        0
 97
        0
 75
     2
 76
     1
 98
        0
  0
ENDBLK
  5
92
330
8F
100
AcDbEntity
  8
0
100
AcDbBlockEnd
  0
BLOCK
  5
97
330
95
100
AcDbEntity
  8
0
100
AcDbBlockBegin
  2
block 16
 70
     0
 10
0.0
 20
0.0
 30
0.0
  3
block 16
  1

  0
SPLINE
  5
99
330
95
100
AcDbEntity
  8
Layer 1
370
     0
100
AcDbSpline
210
0.0
220
0.0
230
1.0
 70
    11
 71
     3
 72
    17
 73
    13
 74
     0
 42
0.0000000001
 43
0.0000000001
 12
1.0
 22
0.0
 32
0.0
 13
1.0
 23
0.0
 33
0.0
 40
0.0
 40
0.0
 40
0.0
 40
0.0
 40
1.0
 40
1.0
 40
1.0
 40
2.0
 40
2.0
 40
2.0
 40
3.0
 40
3.0
 40
3.0
 40
4.0
 40
4.0
 40
4.0
 40
4.0
 10
24.25000005595666
 20
-3.000128246678048
 30
0.0
 10
24.24990372562089
 20
-2.862231908157108
 30
0.0
 10
24.3620374751579
 20
-2.749890479098704
 30
0.0
 10
24.49994986348714
 20
-2.750000079438973
 30
0.0
 10
24.63814343225604
 20
-2.750109896738007
 30
0.0
 10
24.74981441017291
 20
-2.861536790327618
 30
0.0
 10
24.74999976651717
 20
-2.999988055150864
 30
0.0
 10
24.75018439966077
 20
-3.137900647499936
 30
0.0
 10
24.63786138397553
 20
-3.250034451532079
 30
0.0
 10
24.49993583339326
 20
-3.249999991247051
 30
0.0
 10
24.36216204648178
 20
-3.249965567121635
 30
0.0
 10
24.2500962913723
 20
-3.137928562861984
 30
0.0
 10
24.25000005595666
 20
-3.000128246678048
 30
0.0
  0
HATCH
  5
9A
330
95
100
AcDbEntity
  8
Layer 1
 62
   230
420
 15466635
100
AcDbHatch
 10
0.0
 20
0.0
 30
0.0
210
0.0
220
0.0
230
1.0
  2
SOLID
 70
     1
 71
     0
 91
        1
 92
        1
 93
        1
 72
     4
 94
        3
 73
     0
 74
     1
 95
       17
 96
       13
 40
0.0
 40
0.0
 40
0.0
 40
0.0
 40
1.0
 40
1.0
 40
1.0
 40
2.0
 40
2.0
 40
2.0
 40
3.0
 40
3.0
 40
3.0
 40
4.0
 40
4.0
 40
4.0
 40
4.0
 10
24.25000005595666
 20
-3.000128246678048
 10
24.24990372562089
 20
-2.862231908157108
 10
24.3620374751579
 20
-2.749890479098704
 10
24.49994986348714
 20
-2.750000079438973
 10
24.63814343225604
 20
-2.750109896738007
 10
24.74981441017291
 20
-2.861536790327618
 10
24.74999976651717
 20
-2.999988055150864
 10
24.75018439966077
 20
-3.137900647499936
 10
24.63786138397553
 20
-3.250034451532079
 10
24.49993583339326
 20
-3.249999991247051
 10
24.36216204648178
 20
-3.249965567121635
 10
24.2500962913723
 20
-3.137928562861984
 10
24.25000005595666
 20
-3.000128246678048
 97
        0
 97
        0
 75
     2
 76
     1
 98
        0
  0
ENDBLK
  5
98
330
95
100
AcDbEntity
  8
0
100
AcDbBlockEnd
  0
BLOCK
  5
9D
330
9B
100
AcDbEntity
  8
0
100
AcDbBlockBegin
  2
block 17
 70
     0
 10
0.0
 20
0.0
 30
0.0
  3
block 17
  1

  0
SPLINE
  5
9F
330
9B
100
AcDbEntity
  8
Layer 1
370
     0
100
AcDbSpline
210
0.0
220
0.0
230
1.0
 70
    11
 71
     3
 72
    17
 73
    13
 74
     0
 42
0.0000000001
 43
0.0000000001
 12
1.0
 22
0.0
 32
0.0
 13
1.0
 23
0.0
 33
0.0
 40
0.0
 40
0.0
 40
0.0
 40
0.0
 40
1.0
 40
1.0
 40
1.0
 40
2.0
 40
2.0
 40
2.0
 40
3.0
 40
3.0
 40
3.0
 40
4.0
 40
4.0
 40
4.0
 40
4.0
 10
24.25000005595666
 20
-7.000128245678069
 30
0.0
 10
24.24990372562089
 20
-6.862231907157128
 30
0.0
 10
24.3620374751579
 20
-6.749890478098725
 30
0.0
 10
24.49994986348714
 20
-6.750000078438993
 30
0.0
 10
24.63814343225604
 20
-6.750109895738028
 30
0.0
 10
24.74981441017291
 20
-6.861536789327639
 30
0.0
 10
24.74999976651717
 20
-6.999988054150885
 30
0.0
 10
24.75018439966077
 20
-7.137900646499988
 30
0.0
 10
24.63786138397553
 20
-7.250034450532132
 30
0.0
 10
24.49993583339326
 20
-7.249999990247104
 30
0.0
 10
24.36216204648178
 20
-7.249965566121688
 30
0.0
 10
24.2500962913723
 20
-7.137928561862037
 30
0.0
 10
24.25000005595666
 20
-7.000128245678069
 30
0.0
  0
HATCH
  5
A0
330
9B
100
AcDbEntity
  8
Layer 1
 62
   230
420
 15466635
100
AcDbHatch
 10
0.0
 20
0.0
 30
0.0
210
0.0
220
0.0
230
1.0
  2
SOLID
 70
     1
 71
     0
 91
        1
 92
        1
 93
        1
 72
     4
 94
        3
 73
     0
 74
     1
 95
       17
 96
       13
 40
0.0
 40
0.0
 40
0.0
 40
0.0
 40
1.0
 40
1.0
 40
1.0
 40
2.0
 40
2.0
 40
2.0
 40
3.0
 40
3.0
 40
3.0
 40
4.0
 40
4.0
 40
4.0
 40
4.0
 10
24.25000005595666
 20
-7.000128245678069
 10
24.24990372562089
 20
-6.862231907157128
 10
24.3620374751579
 20
-6.749890478098725
 10
24.49994986348714
 20
-6.750000078438993
 10
24.63814343225604
 20
-6.750109895738028
 10
24.74981441017291
 20
-6.861536789327639
 10
24.74999976651717
 20
-6.999988054150885
 10
24.75018439966077
 20
-7.137900646499988
 10
24.63786138397553
 20
-7.250034450532132
 10
24.49993583339326
 20
-7.249999990247104
 10
24.36216204648178
 20
-7.249965566121688
 10
24.2500962913723
 20
-7.137928561862037
 10
24.25000005595666
 20
-7.000128245678069
 97
        0
 97
        0
 75
     2
 76
     1
 98
        0
  0
ENDBLK
  5
9E
330
9B
100
AcDbEntity
  8
0
100
AcDbBlockEnd
  0
BLOCK
  5
A3
330
A1
100
AcDbEntity
  8
0
100
AcDbBlockBegin
  2
block 18
 70
     0
 10
0.0
 20
0.0
 30
0.0
  3
block 18
  1

  0
SPLINE
  5
A5
330
A1
100
AcDbEntity
  8
Layer 1
370
     0
100
AcDbSpline
210
0.0
220
0.0
230
1.0
 70
    11
 71
     3
 72
    17
 73
    13
 74
     0
 42
0.0000000001
 43
0.0000000001
 12
1.0
 22
0.0
 32
0.0
 13
1.0
 23
0.0
 33
0.0
 40
0.0
 40
0.0
 40
0.0
 40
0.0
 40
1.0
 40
1.0
 40
1.0
 40
2.0
 40
2.0
 40
2.0
 40
3.0
 40
3.0
 40
3.0
 40
4.0
 40
4.0
 40
4.0
 40
4.0
 10
23.96499999400874
 20
-4.399999998899994
 30
0.0
 10
23.96499999400874
 20
-4.800411810437135
 30
0.0
 10
23.96499999400874
 20
-5.199631933334815
 30
0.0
 10
23.96499999400874
 20
-5.599999998600009
 30
0.0
 10
23.85500503758367
 20
-5.599999998600009
 30
0.0
 10
23.74512436822397
 20
-5.599999998600009
 30
0.0
 10
23.63499999409122
 20
-5.599999998600009
 30
0.0
 10
23.63499999409122
 20
-5.200306360943352
 30
0.0
 10
23.63499999409122
 20
-4.800732423484077
 30
0.0
 10
23.63499999409122
 20
-4.399999998899994
 30
0.0
 10
23.74484954390293
 20
-4.399999998899994
 30
0.0
 10
23.85472964908956
 20
-4.399999998899994
 30
0.0
 10
23.96499999400874
 20
-4.399999998899994
 30
0.0
  0
HATCH
  5
A6
330
A1
100
AcDbEntity
  8
Layer 1
 62
     9
420
 12303808
100
AcDbHatch
 10
0.0
 20
0.0
 30
0.0
210
0.0
220
0.0
230
1.0
  2
SOLID
 70
     1
 71
     0
 91
        1
 92
        1
 93
        1
 72
     4
 94
        3
 73
     0
 74
     1
 95
       17
 96
       13
 40
0.0
 40
0.0
 40
0.0
 40
0.0
 40
1.0
 40
1.0
 40
1.0
 40
2.0
 40
2.0
 40
2.0
 40
3.0
 40
3.0
 40
3.0
 40
4.0
 40
4.0
 40
4.0
 40
4.0
 10
23.96499999400874
 20
-4.399999998899994
 10
23.96499999400874
 20
-4.800411810437135
 10
23.96499999400874
 20
-5.199631933334815
 10
23.96499999400874
 20
-5.599999998600009
 10
23.85500503758367
 20
-5.599999998600009
 10
23.74512436822397
 20
-5.599999998600009
 10
23.63499999409122
 20
-5.599999998600009
 10
23.63499999409122
 20
-5.200306360943352
 10
23.63499999409122
 20
-4.800732423484077
 10
23.63499999409122
 20
-4.399999998899994
 10
23.74484954390293
 20
-4.399999998899994
 10
23.85472964908956
 20
-4.399999998899994
 10
23.96499999400874
 20
-4.399999998899994
 97
        0
 97
        0
 75
     2
 76
     1
 98
        0
  0
ENDBLK
  5
A4
330
A1
100
AcDbEntity
  8
0
100
AcDbBlockEnd
  0
BLOCK
  5
A9
330
A7
100
AcDbEntity
  8
0
100
AcDbBlockBegin
  2
block 19
 70
     0
 10
0.0
 20
0.0
 30
0.0
  3
block 19
  1

  0
SPLINE
  5
AB
330
A7
100
AcDbEntity
  8
Layer 1
370
     0
100
AcDbSpline
210
0.0
220
0.0
230
1.0
 70
    11
 71
     3
 72
    17
 73
    13
 74
     0
 42
0.0000000001
 43
0.0000000001
 12
1.0
 22
0.0
 32
0.0
 13
1.0
 23
0.0
 33
0.0
 40
0.0
 40
0.0
 40
0.0
 40
0.0
 40
1.0
 40
1.0
 40
1.0
 40
2.0
 40
2.0
 40
2.0
 40
3.0
 40
3.0
 40
3.0
 40
4.0
 40
4.0
 40
4.0
 40
4.0
 10
23.30499999417376
 20
-4.399999998899994
 30
0.0
 10
23.30499999417376
 20
-4.800411810437135
 30
0.0
 10
23.30499999417376
 20
-5.199631933334815
 30
0.0
 10
23.30499999417376
 20
-5.599999998600009
 30
0.0
 10
23.19500503774869
 20
-5.599999998600009
 30
0.0
 10
23.08512436838899
 20
-5.599999998600009
 30
0.0
 10
22.97499999425624
 20
-5.599999998600009
 30
0.0
 10
22.97499999425624
 20
-5.200306360943352
 30
0.0
 10
22.97499999425624
 20
-4.800732423484077
 30
0.0
 10
22.97499999425624
 20
-4.399999998899994
 30
0.0
 10
23.08484954406796
 20
-4.399999998899994
 30
0.0
 10
23.19472964925458
 20
-4.399999998899994
 30
0.0
 10
23.30499999417376
 20
-4.399999998899994
 30
0.0
  0
HATCH
  5
AC
330
A7
100
AcDbEntity
  8
Layer 1
 62
     9
420
 12303808
100
AcDbHatch
 10
0.0
 20
0.0
 30
0.0
210
0.0
220
0.0
230
1.0
  2
SOLID
 70
     1
 71
     0
 91
        1
 92
        1
 93
        1
 72
     4
 94
        3
 73
     0
 74
     1
 95
       17
 96
       13
 40
0.0
 40
0.0
 40
0.0
 40
0.0
 40
1.0
 40
1.0
 40
1.0
 40
2.0
 40
2.0
 40
2.0
 40
3.0
 40
3.0
 40
3.0
 40
4.0
 40
4.0
 40
4.0
 40
4.0
 10
23.30499999417376
 20
-4.399999998899994
 10
23.30499999417376
 20
-4.800411810437135
 10
23.30499999417376
 20
-5.199631933334815
 10
23.30499999417376
 20
-5.599999998600009
 10
23.19500503774869
 20
-5.599999998600009
 10
23.08512436838899
 20
-5.599999998600009
 10
22.97499999425624
 20
-5.599999998600009
 10
22.97499999425624
 20
-5.200306360943352
 10
22.97499999425624
 20
-4.800732423484077
 10
22.97499999425624
 20
-4.399999998899994
 10
23.08484954406796
 20
-4.399999998899994
 10
23.19472964925458
 20
-4.399999998899994
 10
23.30499999417376
 20
-4.399999998899994
 97
        0
 97
        0
 75
     2
 76
     1
 98
        0
  0
ENDBLK
  5
AA
330
A7
100
AcDbEntity
  8
0
100
AcDbBlockEnd
  0
ENDSEC
  0
SECTION
  2
ENTITIES
  0
INSERT
  5
42
330
1F
100
AcDbEntity
  8
Layer 1
100
AcDbBlockReference
  2
block 2
 10
0.0
 20
0.0
 30
0.0
  0
INSERT
  5
48
330
1F
100
AcDbEntity
  8
Layer 1
100
AcDbBlockReference
  2
block 3
 10
0.0
 20
0.0
 30
0.0
  0
INSERT
  5
4E
330
1F
100
AcDbEntity
  8
Layer 1
100
AcDbBlockReference
  2
block 4
 10
0.0
 20
0.0
 30
0.0
  0
INSERT
  5
54
330
1F
100
AcDbEntity
  8
Layer 1
100
AcDbBlockReference
  2
block 5
 10
0.0
 20
0.0
 30
0.0
  0
INSERT
  5
5A
330
1F
100
AcDbEntity
  8
Layer 1
100
AcDbBlockReference
  2
block 6
 10
0.0
 20
0.0
 30
0.0
  0
INSERT
  5
60
330
1F
100
AcDbEntity
  8
Layer 1
100
AcDbBlockReference
  2
block 7
 10
0.0
 20
0.0
 30
0.0
  0
INSERT
  5
66
330
1F
100
AcDbEntity
  8
Layer 1
100
AcDbBlockReference
  2
block 8
 10
0.0
 20
0.0
 30
0.0
  0
INSERT
  5
6C
330
1F
100
AcDbEntity
  8
Layer 1
100
AcDbBlockReference
  2
block 9
 10
0.0
 20
0.0
 30
0.0
  0
INSERT
  5
72
330
1F
100
AcDbEntity
  8
Layer 1
100
AcDbBlockReference
  2
block 10
 10
0.0
 20
0.0
 30
0.0
  0
INSERT
  5
78
330
1F
100
AcDbEntity
  8
Layer 1
100
AcDbBlockReference
  2
block 11
 10
0.0
 20
0.0
 30
0.0
  0
INSERT
  5
7E
330
1F
100
AcDbEntity
  8
Layer 1
100
AcDbBlockReference
  2
block 12
 10
0.0
 20
0.0
 30
0.0
  0
INSERT
  5
84
330
1F
100
AcDbEntity
  8
Layer 1
100
AcDbBlockReference
  2
block 13
 10
0.0
 20
0.0
 30
0.0
  0
INSERT
  5
8A
330
1F
100
AcDbEntity
  8
Layer 1
100
AcDbBlockReference
  2
block 14
 10
0.0
 20
0.0
 30
0.0
  0
INSERT
  5
90
330
1F
100
AcDbEntity
  8
Layer 1
100
AcDbBlockReference
  2
block 15
 10
0.0
 20
0.0
 30
0.0
  0
INSERT
  5
96
330
1F
100
AcDbEntity
  8
Layer 1
100
AcDbBlockReference
  2
block 16
 10
0.0
 20
0.0
 30
0.0
  0
INSERT
  5
9C
330
1F
100
AcDbEntity
  8
Layer 1
100
AcDbBlockReference
  2
block 17
 10
0.0
 20
0.0
 30
0.0
  0
INSERT
  5
A2
330
1F
100
AcDbEntity
  8
Layer 1
100
AcDbBlockReference
  2
block 18
 10
0.0
 20
0.0
 30
0.0
  0
INSERT
  5
A8
330
1F
100
AcDbEntity
  8
Layer 1
100
AcDbBlockReference
  2
block 19
 10
0.0
 20
0.0
 30
0.0
  0
ENDSEC
  0
SECTION
  2
OBJECTS
  0
DICTIONARY
  5
C
330
0
100
AcDbDictionary
281
     1
  3
ACAD_GROUP
350
D
  3
ACAD_LAYOUT
350
1A
  3
ACAD_MATERIAL
350
3B
  3
ACAD_MLEADERSTYLE
350
AE
  3
ACAD_MLINESTYLE
350
17
  3
ACAD_PLOTSETTINGS
350
19
  3
ACAD_PLOTSTYLENAME
350
E
  3
ACAD_TABLESTYLE
350
AD
  3
ACAD_VISUALSTYLE
350
2A
  0
SUN
  5
3F
330
29
100
AcDbSun
 90
        1
290
     0
 63
     7
421
 16777215
 40
1.0
291
     1
 91
  2455826
 92
 54000000
292
     0
 70
     2
 71
   256
280
     1
  0
DICTIONARY
  5
D
102
{ACAD_REACTORS
330
C
102
}
330
C
100
AcDbDictionary
281
     1
  0
DICTIONARY
  5
1A
102
{ACAD_REACTORS
330
C
102
}
330
C
100
AcDbDictionary
281
     1
  3
Layout1
350
1E
  3
Layout2
350
26
  3
Model
350
22
  0
DICTIONARY
  5
3B
102
{ACAD_REACTORS
330
C
102
}
330
C
100
AcDbDictionary
281
     1
  3
ByBlock
350
3D
  3
ByLayer
350
3C
  3
Global
350
3E
  0
DICTIONARY
  5
AE
102
{ACAD_REACTORS
330
C
102
}
330
C
100
AcDbDictionary
281
     1
  0
DICTIONARY
  5
17
102
{ACAD_REACTORS
330
C
102
}
330
C
100
AcDbDictionary
281
     1
  3
Standard
350
18
  0
DICTIONARY
  5
19
102
{ACAD_REACTORS
330
C
102
}
330
C
100
AcDbDictionary
281
     1
  0
ACDBDICTIONARYWDFLT
  5
E
102
{ACAD_REACTORS
330
C
102
}
330
C
100
AcDbDictionary
281
     1
  3
Normal
350
F
100
AcDbDictionaryWithDefault
340
F
  0
DICTIONARY
  5
AD
102
{ACAD_REACTORS
330
C
102
}
330
C
100
AcDbDictionary
281
     1
  0
DICTIONARY
  5
2A
102
{ACAD_REACTORS
330
C
102
}
330
C
100
AcDbDictionary
281
     1
  3
2dWireframe
350
2F
  3
3D Hidden
350
31
  3
3dWireframe
350
30
  3
Basic
350
32
  3
Brighten
350
36
  3
ColorChange
350
3A
  3
Conceptual
350
34
  3
Dim
350
35
  3
Facepattern
350
39
  3
Flat
350
2B
  3
FlatWithEdges
350
2C
  3
Gouraud
350
2D
  3
GouraudWithEdges
350
2E
  3
Linepattern
350
38
  3
Realistic
350
33
  3
Thicken
350
37
  0
LAYOUT
  5
1E
102
{ACAD_REACTORS
330
1A
102
}
330
1A
100
AcDbPlotSettings
  1

  2
none_device
  4

  6

 40
0.0
 41
0.0
 42
0.0
 43
0.0
 44
0.0
 45
0.0
 46
0.0
 47
0.0
 48
0.0
 49
0.0
140
0.0
141
0.0
142
1.0
143
1.0
 70
   688
 72
     0
 73
     0
 74
     5
  7

 75
    16
 76
     0
 77
     2
 78
   300
147
1.0
148
0.0
149
0.0
100
AcDbLayout
  1
Layout1
 70
     1
 71
     1
 10
0.0
 20
0.0
 11
12.0
 21
9.0
 12
0.0
 22
0.0
 32
0.0
 14
1.000000000000000E+20
 24
1.000000000000000E+20
 34
1.000000000000000E+20
 15
-1.000000000000000E+20
 25
-1.000000000000000E+20
 35
-1.000000000000000E+20
146
0.0
 13
0.0
 23
0.0
 33
0.0
 16
1.0
 26
0.0
 36
0.0
 17
0.0
 27
1.0
 37
0.0
 76
     0
330
1B
  0
LAYOUT
  5
26
102
{ACAD_REACTORS
330
1A
102
}
330
1A
100
AcDbPlotSettings
  1

  2
none_device
  4

  6

 40
0.0
 41
0.0
 42
0.0
 43
0.0
 44
0.0
 45
0.0
 46
0.0
 47
0.0
 48
0.0
 49
0.0
140
0.0
141
0.0
142
1.0
143
1.0
 70
   688
 72
     0
 73
     0
 74
     5
  7

 75
    16
 76
     0
 77
     2
 78
   300
147
1.0
148
0.0
149
0.0
100
AcDbLayout
  1
Layout2
 70
     1
 71
     2
 10
0.0
 20
0.0
 11
0.0
 21
0.0
 12
0.0
 22
0.0
 32
0.0
 14
0.0
 24
0.0
 34
0.0
 15
0.0
 25
0.0
 35
0.0
146
0.0
 13
0.0
 23
0.0
 33
0.0
 16
1.0
 26
0.0
 36
0.0
 17
0.0
 27
1.0
 37
0.0
 76
     0
330
23
  0
LAYOUT
  5
22
102
{ACAD_REACTORS
330
1A
102
}
330
1A
100
AcDbPlotSettings
  1

  2
none_device
  4

  6

 40
0.0
 41
0.0
 42
0.0
 43
0.0
 44
0.0
 45
0.0
 46
0.0
 47
0.0
 48
0.0
 49
0.0
140
0.0
141
0.0
142
1.0
143
1.0
 70
  1712
 72
     0
 73
     0
 74
     0
  7

 75
     0
 76
     0
 77
     2
 78
   300
147
1.0
148
0.0
149
0.0
100
AcDbLayout
  1
Model
 70
     1
 71
     0
 10
0.0
 20
0.0
 11
12.0
 21
9.0
 12
0.0
 22
0.0
 32
0.0
 14
1.000000000000000E+20
 24
1.000000000000000E+20
 34
1.000000000000000E+20
 15
-1.000000000000000E+20
 25
-1.000000000000000E+20
 35
-1.000000000000000E+20
146
0.0
 13
0.0
 23
0.0
 33
0.0
 16
1.0
 26
0.0
 36
0.0
 17
0.0
 27
1.0
 37
0.0
 76
     0
330
1F
331
29
  0
MATERIAL
  5
3D
102
{ACAD_REACTORS
330
3B
102
}
330
3B
100
AcDbMaterial
  1
ByBlock
 72
     1
 94
      127
  0
MATERIAL
  5
3C
102
{ACAD_REACTORS
330
3B
102
}
330
3B
100
AcDbMaterial
  1
ByLayer
 72
     1
 94
      127
  0
MATERIAL
  5
3E
102
{ACAD_REACTORS
330
3B
102
}
330
3B
100
AcDbMaterial
  1
Global
 72
     1
 94
      127
  0
MLINESTYLE
  5
18
102
{ACAD_REACTORS
330
17
102
}
330
17
100
AcDbMlineStyle
  2
Standard
 70
     0
  3

 62
   256
 51
90.0
 52
90.0
 71
     2
 49
0.5
 62
   256
  6
BYLAYER
 49
-0.5
 62
   256
  6
BYLAYER
  0
ACDBPLACEHOLDER
  5
F
102
{ACAD_REACTORS
330
E
102
}
330
E
  0
VISUALSTYLE
  5
2F
102
{ACAD_REACTORS
330
2A
102
}
330
2A
100
AcDbVisualStyle
  2
2dWireframe
 70
     4
177
     2
291
     0
 71
     0
176
     1
 72
     2
176
     1
 73
     0
176
     1
 90
        0
176
     1
 40
-0.6
176
     1
 41
-30.0
176
     1
 62
     5
 63
     7
421
 16777215
176
     1
 74
     1
176
     1
 91
        4
176
     1
 64
     7
176
     1
 65
   257
176
     1
 75
     1
176
     1
175
     1
176
     1
 42
1.0
176
     1
 92
        0
176
     1
 66
   257
176
     1
 43
1.0
176
     1
 76
     1
176
     1
 77
     6
176
     1
 78
     2
176
     1
 67
     7
176
     1
 79
     5
176
     1
170
     0
176
     1
171
     0
176
     1
290
     0
176
     1
 93
        1
176
     1
 44
0.0
176
     1
173
     0
176
     1
  0
VISUALSTYLE
  5
31
102
{ACAD_REACTORS
330
2A
102
}
330
2A
100
AcDbVisualStyle
  2
3D Hidden
 70
     6
177
     2
291
     0
 71
     1
176
     1
 72
     2
176
     1
 73
     2
176
     1
 90
        0
176
     1
 40
-0.6
176
     1
 41
-30.0
176
     1
 62
     5
 63
     7
421
 16777215
176
     1
 74
     2
176
     1
 91
        2
176
     1
 64
     7
176
     1
 65
   257
176
     1
 75
     2
176
     1
175
     1
176
     1
 42
40.0
176
     1
 92
        0
176
     1
 66
   257
176
     1
 43
1.0
176
     1
 76
     1
176
     1
 77
     6
176
     1
 78
     2
176
     1
 67
     7
176
     1
 79
     3
176
     1
170
     0
176
     1
171
     0
176
     1
290
     0
176
     1
 93
        1
176
     1
 44
0.0
176
     1
173
     0
176
     1
  0
VISUALSTYLE
  5
30
102
{ACAD_REACTORS
330
2A
102
}
330
2A
100
AcDbVisualStyle
  2
3dWireframe
 70
     5
177
     2
291
     0
 71
     0
176
     1
 72
     2
176
     1
 73
     0
176
     1
 90
        0
176
     1
 40
-0.6
176
     1
 41
-30.0
176
     1
 62
     5
 63
     7
421
 16777215
176
     1
 74
     1
176
     1
 91
        4
176
     1
 64
     7
176
     1
 65
   257
176
     1
 75
     1
176
     1
175
     1
176
     1
 42
1.0
176
     1
 92
        0
176
     1
 66
   257
176
     1
 43
1.0
176
     1
 76
     1
176
     1
 77
     6
176
     1
 78
     2
176
     1
 67
     7
176
     1
 79
     5
176
     1
170
     0
176
     1
171
     0
176
     1
290
     0
176
     1
 93
        1
176
     1
 44
0.0
176
     1
173
     0
176
     1
  0
VISUALSTYLE
  5
32
102
{ACAD_REACTORS
330
2A
102
}
330
2A
100
AcDbVisualStyle
  2
Basic
 70
     7
177
     2
291
     1
 71
     1
176
     1
 72
     0
176
     1
 73
     1
176
     1
 90
        0
176
     1
 40
-0.6
176
     1
 41
-30.0
176
     1
 62
     5
 63
     7
421
 16777215
176
     1
 74
     0
176
     1
 91
        4
176
     1
 64
     7
176
     1
 65
   257
176
     1
 75
     1
176
     1
175
     1
176
     1
 42
1.0
176
     1
 92
        8
176
     1
 66
     7
176
     1
 43
1.0
176
     1
 76
     1
176
     1
 77
     6
176
     1
 78
     2
176
     1
 67
     7
176
     1
 79
     5
176
     1
170
     0
176
     1
171
     0
176
     1
290
     0
176
     1
 93
        1
176
     1
 44
0.0
176
     1
173
     0
176
     1
  0
VISUALSTYLE
  5
36
102
{ACAD_REACTORS
330
2A
102
}
330
2A
100
AcDbVisualStyle
  2
Brighten
 70
    12
177
     2
291
     1
 71
     2
176
     1
 72
     2
176
     1
 73
     0
176
     1
 90
        0
176
     1
 40
-0.6
176
     1
 41
-30.0
176
     1
 62
     5
 63
     7
421
 16777215
176
     1
 74
     1
176
     1
 91
        4
176
     1
 64
     7
176
     1
 65
   257
176
     1
 75
     1
176
     1
175
     1
176
     1
 42
1.0
176
     1
 92
        8
176
     1
 66
     7
176
     1
 43
1.0
176
     1
 76
     1
176
     1
 77
     6
176
     1
 78
     2
176
     1
 67
     7
176
     1
 79
     5
176
     1
170
     0
176
     1
171
     0
176
     1
290
     0
176
     1
 93
        1
176
     1
 44
50.0
176
     1
173
     0
176
     1
  0
VISUALSTYLE
  5
3A
102
{ACAD_REACTORS
330
2A
102
}
330
2A
100
AcDbVisualStyle
  2
ColorChange
 70
    16
177
     2
291
     1
 71
     2
176
     1
 72
     2
176
     1
 73
     3
176
     1
 90
        0
176
     1
 40
-0.6
176
     1
 41
-30.0
176
     1
 62
     5
 63
     8
421
  8421504
176
     1
 74
     1
176
     1
 91
        4
176
     1
 64
     7
176
     1
 65
   257
176
     1
 75
     1
176
     1
175
     1
176
     1
 42
1.0
176
     1
 92
        8
176
     1
 66
     8
424
  8421504
176
     1
 43
1.0
176
     1
 76
     1
176
     1
 77
     6
176
     1
 78
     2
176
     1
 67
     7
176
     1
 79
     5
176
     1
170
     0
176
     1
171
     0
176
     1
290
     0
176
     1
 93
        1
176
     1
 44
0.0
176
     1
173
     0
176
     1
  0
VISUALSTYLE
  5
34
102
{ACAD_REACTORS
330
2A
102
}
330
2A
100
AcDbVisualStyle
  2
Conceptual
 70
     9
177
     2
291
     0
 71
     3
176
     1
 72
     2
176
     1
 73
     0
176
     1
 90
        0
176
     1
 40
-0.6
176
     1
 41
-30.0
176
     1
 62
     5
 63
     7
421
 16777215
176
     1
 74
     2
176
     1
 91
        2
176
     1
 64
     7
176
     1
 65
   257
176
     1
 75
     1
176
     1
175
     1
176
     1
 42
40.0
176
     1
 92
        8
176
     1
 66
     7
176
     1
 43
1.0
176
     1
 76
     1
176
     1
 77
     6
176
     1
 78
     2
176
     1
 67
     7
176
     1
 79
     3
176
     1
170
     0
176
     1
171
     0
176
     1
290
     0
176
     1
 93
        1
176
     1
 44
0.0
176
     1
173
     0
176
     1
  0
VISUALSTYLE
  5
35
102
{ACAD_REACTORS
330
2A
102
}
330
2A
100
AcDbVisualStyle
  2
Dim
 70
    11
177
     2
291
     1
 71
     2
176
     1
 72
     2
176
     1
 73
     0
176
     1
 90
        0
176
     1
 40
-0.6
176
     1
 41
-30.0
176
     1
 62
     5
 63
     7
421
 16777215
176
     1
 74
     1
176
     1
 91
        4
176
     1
 64
     7
176
     1
 65
   257
176
     1
 75
     1
176
     1
175
     1
176
     1
 42
1.0
176
     1
 92
        8
176
     1
 66
     7
176
     1
 43
1.0
176
     1
 76
     1
176
     1
 77
     6
176
     1
 78
     2
176
     1
 67
     7
176
     1
 79
     5
176
     1
170
     0
176
     1
171
     0
176
     1
290
     0
176
     1
 93
        1
176
     1
 44
-50.0
176
     1
173
     0
176
     1
  0
VISUALSTYLE
  5
39
102
{ACAD_REACTORS
330
2A
102
}
330
2A
100
AcDbVisualStyle
  2
Facepattern
 70
    15
177
     2
291
     1
 71
     2
176
     1
 72
     2
176
     1
 73
     0
176
     1
 90
        0
176
     1
 40
-0.6
176
     1
 41
-30.0
176
     1
 62
     5
 63
     7
421
 16777215
176
     1
 74
     1
176
     1
 91
        4
176
     1
 64
     7
176
     1
 65
   257
176
     1
 75
     1
176
     1
175
     1
176
     1
 42
1.0
176
     1
 92
        8
176
     1
 66
     7
176
     1
 43
1.0
176
     1
 76
     1
176
     1
 77
     6
176
     1
 78
     2
176
     1
 67
     7
176
     1
 79
     5
176
     1
170
     0
176
     1
171
     0
176
     1
290
     0
176
     1
 93
        1
176
     1
 44
0.0
176
     1
173
     0
176
     1
  0
VISUALSTYLE
  5
2B
102
{ACAD_REACTORS
330
2A
102
}
330
2A
100
AcDbVisualStyle
  2
Flat
 70
     0
177
     2
291
     1
 71
     2
176
     1
 72
     1
176
     1
 73
     1
176
     1
 90
        2
176
     1
 40
-0.6
176
     1
 41
30.0
176
     1
 62
     5
 63
     7
421
 16777215
176
     1
 74
     0
176
     1
 91
        4
176
     1
 64
     7
176
     1
 65
   257
176
     1
 75
     1
176
     1
175
     1
176
     1
 42
1.0
176
     1
 92
        8
176
     1
 66
     7
176
     1
 43
1.0
176
     1
 76
     1
176
     1
 77
     6
176
     1
 78
     2
176
     1
 67
     7
176
     1
 79
     5
176
     1
170
     0
176
     1
171
     0
176
     1
290
     0
176
     1
 93
       13
176
     1
 44
0.0
176
     1
173
     0
176
     1
  0
VISUALSTYLE
  5
2C
102
{ACAD_REACTORS
330
2A
102
}
330
2A
100
AcDbVisualStyle
  2
FlatWithEdges
 70
     1
177
     2
291
     1
 71
     2
176
     1
 72
     1
176
     1
 73
     1
176
     1
 90
        2
176
     1
 40
-0.6
176
     1
 41
30.0
176
     1
 62
     5
 63
     7
421
 16777215
176
     1
 74
     1
176
     1
 91
        4
176
     1
 64
     7
176
     1
 65
   257
176
     1
 75
     1
176
     1
175
     1
176
     1
 42
1.0
176
     1
 92
        0
176
     1
 66
   257
176
     1
 43
1.0
176
     1
 76
     1
176
     1
 77
     6
176
     1
 78
     2
176
     1
 67
     7
176
     1
 79
     5
176
     1
170
     0
176
     1
171
     0
176
     1
290
     0
176
     1
 93
       13
176
     1
 44
0.0
176
     1
173
     0
176
     1
  0
VISUALSTYLE
  5
2D
102
{ACAD_REACTORS
330
2A
102
}
330
2A
100
AcDbVisualStyle
  2
Gouraud
 70
     2
177
     2
291
     1
 71
     2
176
     1
 72
     2
176
     1
 73
     1
176
     1
 90
        2
176
     1
 40
-0.6
176
     1
 41
30.0
176
     1
 62
     5
 63
     7
421
 16777215
176
     1
 74
     0
176
     1
 91
        4
176
     1
 64
     7
176
     1
 65
   257
176
     1
 75
     1
176
     1
175
     1
176
     1
 42
1.0
176
     1
 92
        0
176
     1
 66
     7
176
     1
 43
1.0
176
     1
 76
     1
176
     1
 77
     6
176
     1
 78
     2
176
     1
 67
     7
176
     1
 79
     5
176
     1
170
     0
176
     1
171
     0
176
     1
290
     0
176
     1
 93
       13
176
     1
 44
0.0
176
     1
173
     0
176
     1
  0
VISUALSTYLE
  5
2E
102
{ACAD_REACTORS
330
2A
102
}
330
2A
100
AcDbVisualStyle
  2
GouraudWithEdges
 70
     3
177
     2
291
     1
 71
     2
176
     1
 72
     2
176
     1
 73
     1
176
     1
 90
        2
176
     1
 40
-0.6
176
     1
 41
30.0
176
     1
 62
     5
 63
     7
421
 16777215
176
     1
 74
     1
176
     1
 91
        4
176
     1
 64
     7
176
     1
 65
   257
176
     1
 75
     1
176
     1
175
     1
176
     1
 42
1.0
176
     1
 92
        0
176
     1
 66
   257
176
     1
 43
1.0
176
     1
 76
     1
176
     1
 77
     6
176
     1
 78
     2
176
     1
 67
     7
176
     1
 79
     5
176
     1
170
     0
176
     1
171
     0
176
     1
290
     0
176
     1
 93
       13
176
     1
 44
0.0
176
     1
173
     0
176
     1
  0
VISUALSTYLE
  5
38
102
{ACAD_REACTORS
330
2A
102
}
330
2A
100
AcDbVisualStyle
  2
Linepattern
 70
    14
177
     2
291
     1
 71
     2
176
     1
 72
     2
176
     1
 73
     0
176
     1
 90
        0
176
     1
 40
-0.6
176
     1
 41
-30.0
176
     1
 62
     5
 63
     7
421
 16777215
176
     1
 74
     1
176
     1
 91
        4
176
     1
 64
     7
176
     1
 65
   257
176
     1
 75
     7
176
     1
175
     7
176
     1
 42
1.0
176
     1
 92
        8
176
     1
 66
     7
176
     1
 43
1.0
176
     1
 76
     1
176
     1
 77
     6
176
     1
 78
     2
176
     1
 67
     7
176
     1
 79
     5
176
     1
170
     0
176
     1
171
     0
176
     1
290
     0
176
     1
 93
        1
176
     1
 44
0.0
176
     1
173
     0
176
     1
  0
VISUALSTYLE
  5
33
102
{ACAD_REACTORS
330
2A
102
}
330
2A
100
AcDbVisualStyle
  2
Realistic
 70
     8
177
     2
291
     0
 71
     2
176
     1
 72
     2
176
     1
 73
     0
176
     1
 90
        0
176
     1
 40
-0.6
176
     1
 41
-30.0
176
     1
 62
     5
 63
     7
421
 16777215
176
     1
 74
     1
176
     1
 91
        0
176
     1
 64
     7
176
     1
 65
   257
176
     1
 75
     1
176
     1
175
     1
176
     1
 42
1.0
176
     1
 92
        8
176
     1
 66
     8
424
  7895160
176
     1
 43
1.0
176
     1
 76
     1
176
     1
 77
     6
176
     1
 78
     2
176
     1
 67
     7
176
     1
 79
     5
176
     1
170
     0
176
     1
171
     0
176
     1
290
     0
176
     1
 93
       13
176
     1
 44
0.0
176
     1
173
     0
176
     1
  0
VISUALSTYLE
  5
37
102
{ACAD_REACTORS
330
2A
102
}
330
2A
100
AcDbVisualStyle
  2
Thicken
 70
    13
177
     2
291
     1
 71
     2
176
     1
 72
     2
176
     1
 73
     0
176
     1
 90
        0
176
     1
 40
-0.6
176
     1
 41
-30.0
176
     1
 62
     5
 63
     7
421
 16777215
176
     1
 74
     1
176
     1
 91
        4
176
     1
 64
     7
176
     1
 65
   257
176
     1
 75
     1
176
     1
175
     1
176
     1
 42
1.0
176
     1
 92
       12
176
     1
 66
     7
176
     1
 43
1.0
176
     1
 76
     1
176
     1
 77
     6
176
     1
 78
     2
176
     1
 67
     7
176
     1
 79
     5
176
     1
170
     0
176
     1
171
     0
176
     1
290
     0
176
     1
 93
        1
176
     1
 44
0.0
176
     1
173
     0
176
     1
  0
ENDSEC
  0
EOF
